STARTFONT 2.1
FONT -FontForge-Monoton-Book-R-Normal--36-360-72-72-P-244-ISO10646-1
SIZE 36 72 72
FONTBOUNDINGBOX 67 56 -6 -15
COMMENT "Generated by fontforge, http://fontforge.sourceforge.net"
COMMENT "Copyright (c) 2011 by vernon adams. All rights reserved."
STARTPROPERTIES 40
FOUNDRY "FontForge"
FAMILY_NAME "Monoton"
WEIGHT_NAME "Book"
SLANT "R"
SETWIDTH_NAME "Normal"
ADD_STYLE_NAME ""
PIXEL_SIZE 36
POINT_SIZE 360
RESOLUTION_X 72
RESOLUTION_Y 72
SPACING "P"
AVERAGE_WIDTH 244
CHARSET_REGISTRY "ISO10646"
CHARSET_ENCODING "1"
FONTNAME_REGISTRY ""
CHARSET_COLLECTIONS "ISO8859-2 ISO8859-9 ISO8859-4 ISO10646-1"
FONT_NAME "Monoton-Regular"
FACE_NAME "Monoton"
COPYRIGHT "Copyright (c) 2011 by vernon adams. All rights reserved."
FONT_VERSION "1.000"
FONT_ASCENT 29
FONT_DESCENT 7
UNDERLINE_POSITION -2
UNDERLINE_THICKNESS 1
X_HEIGHT 24
CAP_HEIGHT 28
DEFAULT_CHAR 1
RAW_ASCENT 799
RAW_DESCENT 200
NORM_SPACE 4
RELATIVE_WEIGHT 40
RELATIVE_SETWIDTH 50
SUPERSCRIPT_X 0
SUPERSCRIPT_Y 12
SUPERSCRIPT_SIZE 21
SUBSCRIPT_X 0
SUBSCRIPT_Y 2
SUBSCRIPT_SIZE 21
AVG_LOWERCASE_WIDTH 261
AVG_UPPERCASE_WIDTH 286
ENDPROPERTIES
CHARS 372
STARTCHAR glyph1.dup1
ENCODING 0
SWIDTH 108 0
DWIDTH 4 0
BBX 1 1 0 0
BITMAP
00
ENDCHAR
STARTCHAR uni0002
ENCODING 2
SWIDTH 108 0
DWIDTH 4 0
BBX 1 1 0 0
BITMAP
00
ENDCHAR
STARTCHAR uni0009
ENCODING 9
SWIDTH 108 0
DWIDTH 4 0
BBX 1 1 0 0
BITMAP
00
ENDCHAR
STARTCHAR uni000A
ENCODING 10
SWIDTH 108 0
DWIDTH 4 0
BBX 1 1 0 0
BITMAP
00
ENDCHAR
STARTCHAR uni000D
ENCODING 13
SWIDTH 108 0
DWIDTH 4 0
BBX 1 1 0 0
BITMAP
00
ENDCHAR
STARTCHAR space
ENCODING 32
SWIDTH 108 0
DWIDTH 4 0
BBX 1 1 0 0
BITMAP
00
ENDCHAR
STARTCHAR exclam
ENCODING 33
SWIDTH 336 0
DWIDTH 12 0
BBX 9 30 2 -1
BITMAP
A580
A580
A580
A580
A580
A580
A580
A580
A580
A580
A580
A580
A580
A580
A580
A580
A580
A580
A580
A580
A580
0000
0000
0000
FF80
0000
FF80
FF80
0000
FF80
ENDCHAR
STARTCHAR quotedbl
ENCODING 34
SWIDTH 538 0
DWIDTH 19 0
BBX 17 11 1 18
BITMAP
D21480
D21480
D21480
D21480
D21480
D21480
D21480
D21480
D21480
D21480
D21480
ENDCHAR
STARTCHAR numbersign
ENCODING 35
SWIDTH 1014 0
DWIDTH 37 0
BBX 35 32 1 -2
BITMAP
001B40D200
001AC09600
0012C0B400
001681A400
003481A400
07F5FD2FE0
07A5FD6BE0
002D034800
0FE97F4FC0
006B025800
0F4BFAD7C0
1F5AFE9780
00D2069000
00D604B000
009605A000
00B40D2000
01A40D6000
01AC096000
012C0B4000
01681A4000
03483AC000
7F5FD2FE00
0258168000
7AD7F4BC00
FE97F5BC00
06B0258000
F4BFAD7C00
05A0690000
0D206B0000
0D604B0000
09605A0000
0B40D20000
ENDCHAR
STARTCHAR dollar
ENCODING 36
SWIDTH 686 0
DWIDTH 25 0
BBX 23 39 1 -5
BITMAP
004C00
004C00
004C00
000000
03FF80
0700F0
187E1C
33E7C6
260030
6CFF98
5B80E0
D23E00
D6FF80
968000
D68000
D6FF00
DA03C0
49C060
6CFF10
2600D8
33FE6C
1C0724
0781B4
01FC94
000296
000296
03FC94
08F9B4
0E0324
23FE6C
1800D8
C7FF10
70FC60
1E01C0
03FF00
000000
004C00
004C00
004C00
ENDCHAR
STARTCHAR percent
ENCODING 37
SWIDTH 1504 0
DWIDTH 54 0
BBX 52 33 1 -3
BITMAP
03FE0000000000
06030036800000
18F8C034800000
33DE6025800000
2603202D000000
6CF9B069000000
5986D06B000000
D272584B000000
96FB485A000000
948948D2000000
948968D603FC00
948948940E0600
96FB48B418F180
DB2259A423FCC0
498C912C6C0640
6CF9B128D9F320
26032168930DA0
11FE4348B664B0
0C318259A5F690
070702D1AD1AD0
01FC02D12D1AD0
000006912D1AD0
000004B1A5F690
000005A0B664B0
000005A0930DB0
00000D20D9F320
000009606C0640
00000B4023FCC0
00000B4018F180
00001A400E0700
000012C003FC00
00001680000000
00001480000000
ENDCHAR
STARTCHAR ampersand
ENCODING 38
SWIDTH 1029 0
DWIDTH 37 0
BBX 35 29 1 0
BITMAP
01FFE2D600
070002D600
0C3FE2D600
19FFE2D600
370002D600
6CFFE2D600
498002D600
5B3FE2D600
D2FFE2D600
D68002D600
968002D600
D6FFFAD7E0
5A7FFAD7E0
498002D600
2CFFFAD7E0
498002D600
5A3FFAD7E0
D6FFFAD7E0
D68002D600
D68002D600
D2FFF2D3C0
5B00025800
49C0036E00
6CFFF127C0
3700019800
19FFF0CFC0
0C00006000
0780003C00
01FFF00FC0
ENDCHAR
STARTCHAR quotesingle
ENCODING 39
SWIDTH 257 0
DWIDTH 9 0
BBX 7 11 1 18
BITMAP
D2
D2
D2
D2
D2
D2
D2
D2
D2
D2
D2
ENDCHAR
STARTCHAR parenleft
ENCODING 40
SWIDTH 410 0
DWIDTH 15 0
BBX 13 33 1 -3
BITMAP
01F8
0700
0C78
19C0
3600
24F8
6980
5B38
5260
D680
D680
D680
D680
D680
D680
D680
D680
D680
D680
D680
D680
D680
D680
52C0
5B78
4980
6CF8
3600
1380
0CF8
0600
01F8
0018
ENDCHAR
STARTCHAR parenright
ENCODING 41
SWIDTH 408 0
DWIDTH 15 0
BBX 12 33 1 -3
BITMAP
FC00
0700
F180
3CC0
0660
F920
0DB0
E690
32D0
1A50
0A50
0A50
0A50
0A50
0A50
0A50
0A50
0A50
0A50
0A50
0A50
0A50
1A50
32D0
E690
0CB0
F920
0360
1CC0
F980
0700
FC00
E000
ENDCHAR
STARTCHAR asterisk
ENCODING 42
SWIDTH 664 0
DWIDTH 24 0
BBX 22 21 1 4
BITMAP
00B400
00B400
10B420
18B460
06B580
73B738
18B460
C6318C
73B738
1CFCE0
063180
18FC60
73B738
CE31CC
18B460
73B738
0EB5C0
18B460
10B420
00B400
00B400
ENDCHAR
STARTCHAR plus
ENCODING 43
SWIDTH 601 0
DWIDTH 22 0
BBX 19 17 1 6
BITMAP
029400
029400
029400
029400
029400
FE97E0
FE97E0
029400
FE97E0
029400
FE97E0
FE97E0
029400
029400
029400
029400
029400
ENDCHAR
STARTCHAR comma
ENCODING 44
SWIDTH 252 0
DWIDTH 9 0
BBX 7 11 1 -5
BITMAP
D6
D6
D6
D6
D6
16
16
E4
84
18
F0
ENDCHAR
STARTCHAR hyphen
ENCODING 45
SWIDTH 473 0
DWIDTH 17 0
BBX 14 7 2 11
BITMAP
FFFC
FFFC
0000
FFFC
0000
FFFC
FFFC
ENDCHAR
STARTCHAR period
ENCODING 46
SWIDTH 255 0
DWIDTH 9 0
BBX 7 6 1 0
BITMAP
FE
00
FE
00
00
FE
ENDCHAR
STARTCHAR slash
ENCODING 47
SWIDTH 447 0
DWIDTH 16 0
BBX 14 32 1 -3
BITMAP
00B4
01A4
012C
0128
0168
0348
0258
0250
02D0
0690
04B0
04A0
05A0
0D20
0960
0940
0B40
1A40
12C0
1280
1680
3480
2580
2500
2D00
6900
4B00
4A00
5A00
D200
9600
B400
ENDCHAR
STARTCHAR zero
ENCODING 48
SWIDTH 843 0
DWIDTH 30 0
BBX 28 31 1 -1
BITMAP
007FE000
01C03800
030F8E00
0479F300
09C01980
1B3FCC80
36607640
24CF1B60
6DBFC920
4B606DA0
5A4034B0
D2C01690
D6801290
96801AD0
96801AD0
94801AD0
94801AD0
96801AD0
D6801290
52C01690
5A4034B0
4B606DA0
6DBFC920
24CF1B60
36706640
1B1FCC80
09C01980
067FE300
030F0E00
01E03800
007FE000
ENDCHAR
STARTCHAR one
ENCODING 49
SWIDTH 426 0
DWIDTH 15 0
BBX 13 29 1 0
BITMAP
FFF8
0000
FFF8
FFF8
0000
FFF8
0B58
0B58
0B58
0B58
0B58
0B58
0B58
0B58
0B58
0B58
0B58
0B58
0B58
0B58
0B58
0B58
0B58
0B58
0B58
0B58
0B58
0B58
0B58
ENDCHAR
STARTCHAR two
ENCODING 50
SWIDTH 583 0
DWIDTH 21 0
BBX 19 30 1 0
BITMAP
7FF800
C00E00
1FE300
FCF980
000EC0
7FE240
401B60
0FC920
7FED20
002520
002D20
006960
005B40
0096C0
01A480
036D80
02DB00
049200
0D2600
1B6C00
12C800
249000
6D2000
000000
FFFFC0
000000
FFFFC0
000000
000000
FFFFC0
ENDCHAR
STARTCHAR three
ENCODING 51
SWIDTH 612 0
DWIDTH 22 0
BBX 20 31 1 -1
BITMAP
7FF800
C00E00
0FE380
FE7CC0
000640
7FF360
6019A0
0FC4B0
7FF6B0
001290
001290
07F6B0
001EB0
000320
07F9A0
000EC0
07E360
003920
000CB0
07F6B0
001290
001290
7FF6B0
03C4B0
6019A0
3FF360
800640
FFF880
0FE300
E00E00
7FF800
ENDCHAR
STARTCHAR four
ENCODING 52
SWIDTH 622 0
DWIDTH 22 0
BBX 20 29 1 0
BITMAP
00D6C0
01B480
012580
036D80
024900
06DB00
049200
05B600
0D2400
0B6C00
1A4800
12D800
369160
249160
6DB160
492160
DB6160
000000
FFFFF0
000000
FFFFF0
000000
000000
FFFFF0
000000
000160
000160
000160
000160
ENDCHAR
STARTCHAR five
ENCODING 53
SWIDTH 691 0
DWIDTH 25 0
BBX 23 30 1 -1
BITMAP
7FFFF0
000000
7FFFF0
7FFFF0
000000
7FFFF0
5A0000
5A0000
5A0000
5A0000
5AFF80
5A00C0
5AFE30
5AC798
5A00C8
5AFE64
5A01B4
5AFC96
0086D2
000252
000252
03FED6
087196
0E0724
23FC6C
1801D8
CFFF30
70F860
1C03C0
07FE00
ENDCHAR
STARTCHAR six
ENCODING 54
SWIDTH 781 0
DWIDTH 28 0
BBX 26 31 1 -1
BITMAP
00FFE000
03803C00
063F8600
18F1F300
13801C00
267FC400
6CC07000
499F0000
5B7BC000
D2C00000
D6800000
D6BFF000
D6A01C00
D68FC600
D6B87300
D6801980
D6BFE480
D6A036C0
D69F9A40
D6B0CB40
D6806B40
D2C06B40
5A7FDA40
490E12C0
6CE06680
263FCD80
13801900
18FFE300
061F0C00
03C03800
007FE000
ENDCHAR
STARTCHAR seven
ENCODING 55
SWIDTH 631 0
DWIDTH 23 0
BBX 21 29 1 0
BITMAP
FFEB58
001A58
FFD2D0
FFD290
0016B0
FFF4B0
0025A0
002520
002D20
006960
006B40
004A40
005A40
00D2C0
00D680
009680
00B480
01A580
01AD00
012D00
016900
034B00
035A00
025A00
02D200
069600
06B400
04B400
05AC00
ENDCHAR
STARTCHAR eight
ENCODING 56
SWIDTH 808 0
DWIDTH 29 0
BBX 27 31 1 -1
BITMAP
01FFF000
07001C00
1C7FC700
33E0F980
26000C80
6CFFE6C0
59803B40
D23F8960
D6E0ED20
D6802520
D6802520
D27FED20
5B003D60
49E00640
647FF340
33001C80
79FFC6C0
4C007240
5BC01960
D6FFED20
D6802520
D6802520
D6FFED20
5B3F8960
49803B40
6CFFE6C0
26000C80
11FFF980
0C7FC300
07001C00
01FFF000
ENDCHAR
STARTCHAR nine
ENCODING 57
SWIDTH 782 0
DWIDTH 28 0
BBX 26 31 1 -1
BITMAP
01FFC000
07007000
0C7E1C00
11F3E600
26003300
6CFF9900
5980ED80
D23E3680
96FF92C0
9480DAC0
94805A40
96E34A40
D27E4A40
59814A40
6CFF4A40
26004A40
31FF4A40
0C7C4A40
07014A40
01FF4A40
00005A40
0000D2C0
00FF9680
021C6480
0380CD80
08FF9900
06007200
33FFC600
1C3E1800
0780F000
01FFC000
ENDCHAR
STARTCHAR colon
ENCODING 58
SWIDTH 262 0
DWIDTH 9 0
BBX 6 17 2 5
BITMAP
FC
FC
00
FC
00
00
FC
00
00
00
00
FC
00
FC
00
00
FC
ENDCHAR
STARTCHAR semicolon
ENCODING 59
SWIDTH 261 0
DWIDTH 9 0
BBX 6 22 2 0
BITMAP
FC
FC
00
FC
00
00
FC
00
00
00
00
A4
A4
A4
A4
A4
24
24
EC
08
38
E0
ENDCHAR
STARTCHAR less
ENCODING 60
SWIDTH 670 0
DWIDTH 24 0
BBX 22 27 1 1
BITMAP
000004
00003C
0000E0
00078C
001C38
00F1E0
03870C
1E3C78
70E1C4
C78E1C
1C78F0
F1C380
8F1E00
387000
E3CE00
8EE380
7838F0
C78F1C
70E1C4
0E3C78
03870C
0071E0
001C38
00038C
0000F0
00001C
000004
ENDCHAR
STARTCHAR equal
ENCODING 61
SWIDTH 473 0
DWIDTH 17 0
BBX 14 17 2 5
BITMAP
FFFC
FFFC
0000
FFFC
0000
0000
FFFC
0000
0000
0000
0000
FFFC
0000
FFFC
0000
0000
FFFC
ENDCHAR
STARTCHAR greater
ENCODING 62
SWIDTH 670 0
DWIDTH 24 0
BBX 22 27 1 1
BITMAP
800000
F00000
1C0000
C78000
78E000
0E3C00
E3C700
3871E0
8F1E3C
E1C38C
3C7C78
0789C4
01CF1C
003870
01E3C4
070E3C
3C70E0
E3C78C
8E1C38
78F1E0
C38700
1E3C00
70E000
C78000
1C0000
F00000
800000
ENDCHAR
STARTCHAR question
ENCODING 63
SWIDTH 693 0
DWIDTH 25 0
BBX 23 30 1 0
BITMAP
07FF00
1C01C0
61FC60
CF9F10
3801C8
23FE6C
0E0324
00F896
03DED2
000252
000252
0006D2
16BC96
1681B4
16BE64
1680C8
168798
16BE30
1680E0
16BF80
168000
168000
000000
000000
3FC000
000000
3FC000
000000
000000
3FC000
ENDCHAR
STARTCHAR at
ENCODING 64
SWIDTH 1076 0
DWIDTH 39 0
BBX 37 35 1 -3
BITMAP
0000780000
000FFF8000
003800E000
00C3FE3800
039E07CC00
0670606200
0CC7FF1900
099C01CC80
13300066C0
3640F81360
2487FF0920
6D8C018DB0
4919FCC490
5A330662D0
D226712250
922DFDA258
966904A358
966B04A358
966B04A358
966904A358
D22CF4A358
DA3604A358
4B13F49E58
690C36C890
65878261B0
36C1F33E20
33600180C0
1998007F80
0CCFFE1E00
0670000000
031E020000
01C7FE0000
0070000000
001FFE0000
0000600000
ENDCHAR
STARTCHAR A
ENCODING 65
SWIDTH 936 0
DWIDTH 34 0
BBX 32 29 1 0
BITMAP
001A5800
003B6800
002D2C00
0025A400
0064B400
00569600
00DAD200
00924B00
00B56900
01A52D00
012DA580
036AB480
024A92C0
02DADA40
06964B40
04B46960
05A42D20
0D2C24B0
0B683690
1A5BD2D0
12D43A58
16900B48
34BFF96C
2DA00DA4
692FF4B4
4B7FFE96
5A4002D2
D2C0025B
B6800369
ENDCHAR
STARTCHAR B
ENCODING 66
SWIDTH 862 0
DWIDTH 31 0
BBX 28 29 2 0
BITMAP
FFFFF800
80000E00
BFFFC300
BFFFF880
A00006C0
A7FFF360
A4001920
A5FF8DA0
A5FFF6B0
A5801690
A5801690
A5FFF6B0
A5FFE4A0
A5800D20
A5FFF340
A5801920
A5FFC4A0
A5FFF6B0
A5801690
A5801690
A5FFF4B0
A5800DA0
A5803920
A5FFF360
A5800EC0
A5FFF980
A5800300
A5801E00
A5FFF800
ENDCHAR
STARTCHAR C
ENCODING 67
SWIDTH 852 0
DWIDTH 31 0
BBX 29 31 1 -1
BITMAP
001FF800
00F00E00
0187E380
063EFCC0
0CE00660
198FF1B0
13381CD8
3663C660
2C9FF340
69301980
5B600600
D2400400
D6C00000
96800000
94800000
94800000
94800000
96800000
D6C00000
5A400400
5B600600
69301980
248FF340
3663C660
13381CD8
098FF330
0CE00660
033FF8C0
0183C380
00700E00
001FF800
ENDCHAR
STARTCHAR D
ENCODING 68
SWIDTH 886 0
DWIDTH 32 0
BBX 29 29 2 0
BITMAP
FFFFF000
80003C00
BFFF0600
BFFFF300
A0001D80
A7FFC6C0
A4007360
A5FF1920
A5FFEDB0
A5802490
A58016D0
A5801250
A5801A58
A5800B58
A5800B58
A5800B58
A5801A58
A58012D0
A58036D0
A5802490
A5FFCDB0
A4001920
A4007360
A7FFC6C0
A0001980
BFFFF300
80000600
80003C00
FFFFE000
ENDCHAR
STARTCHAR E
ENCODING 69
SWIDTH 706 0
DWIDTH 25 0
BBX 22 29 2 0
BITMAP
A5FFFC
A58000
A5FFFC
A5FFFC
A58000
A5FFFC
A58000
A58000
A58000
A58000
A58000
A5FE00
A5FE00
A58000
A5FE00
A58000
A5FE00
A5FE00
A58000
A58000
A58000
A58000
A58000
A5FFFC
A58000
A5FFFC
A58000
A58000
A5FFFC
ENDCHAR
STARTCHAR F
ENCODING 70
SWIDTH 683 0
DWIDTH 25 0
BBX 21 29 2 0
BITMAP
A5FFF8
A58000
A5FFF8
A5FFF8
A58000
A5FFF8
A58000
A58000
A58000
A58000
A58000
A58000
A58000
A5FFF8
A58000
A5FFF8
A58000
A58000
A5FFF8
A58000
A58000
A58000
A58000
A58000
A58000
A58000
A58000
A58000
A58000
ENDCHAR
STARTCHAR G
ENCODING 71
SWIDTH 908 0
DWIDTH 33 0
BBX 30 31 1 -1
BITMAP
001FF800
00F00E00
0187E380
063EFCC0
0CE00660
198FF1B0
13381CD8
3663C660
2C9FF340
69301980
5B600600
D2400400
D6C00000
96800000
94800000
948006B4
948006B4
948006B4
D68006B4
D2C006B4
5B6006B4
493006B4
2D9FFEB4
36E3C6B4
13381EB4
198FFEB4
0CE006B4
063FFEB4
0187E6B4
00F00EB4
001FF800
ENDCHAR
STARTCHAR H
ENCODING 72
SWIDTH 901 0
DWIDTH 32 0
BBX 29 29 2 0
BITMAP
A5800B58
A5800B58
A5800B58
A5800B58
A5800B58
A5800B58
A5800B58
A5800B58
A5800B58
A5800B58
A5800B58
A5FFFB58
A5FFFB58
A5800B58
A5FFFB58
A5800B58
A5FFFB58
A5FFFB58
A5800B58
A5800B58
A5800B58
A5800B58
A5800B58
A5800B58
A5800B58
A5800B58
A5800B58
A5800B58
A5800B58
ENDCHAR
STARTCHAR I
ENCODING 73
SWIDTH 338 0
DWIDTH 12 0
BBX 9 29 2 0
BITMAP
A580
A580
A580
A580
A580
A580
A580
A580
A580
A580
A580
A580
A580
A580
A580
A580
A580
A580
A580
A580
A580
A580
A580
A580
A580
A580
A580
A580
A580
ENDCHAR
STARTCHAR J
ENCODING 74
SWIDTH 434 0
DWIDTH 16 0
BBX 13 30 1 -1
BITMAP
0968
0968
0968
0968
0968
0968
0968
0968
0968
0968
0968
0968
0968
0968
0968
0968
0968
0968
0968
0948
0B48
FA58
E6D0
0C90
F9B0
0360
FCC0
F180
0700
FC00
ENDCHAR
STARTCHAR K
ENCODING 75
SWIDTH 815 0
DWIDTH 29 0
BBX 27 29 2 0
BITMAP
A580DB60
A58092C0
A581B480
A5812D80
A5836900
A5825B00
A586D200
A584B600
A58DA400
A5896C00
A59B4800
A592D800
A5B49000
A5A5B000
A5ED2000
A5A5B000
A5B69000
A592D800
A59B4800
A5896C00
A58DA400
A5849600
A586D200
A5824B00
A5836900
A5812580
A581B480
A58092C0
A580DB60
ENDCHAR
STARTCHAR L
ENCODING 76
SWIDTH 604 0
DWIDTH 22 0
BBX 19 29 2 0
BITMAP
A58000
A58000
A58000
A58000
A58000
A58000
A58000
A58000
A58000
A58000
A58000
A58000
A58000
A58000
A58000
A58000
A58000
A58000
A58000
A58000
A58000
A58000
A58000
A5FFE0
A58000
A5FFE0
A58000
A58000
A5FFE0
ENDCHAR
STARTCHAR M
ENCODING 77
SWIDTH 920 0
DWIDTH 33 0
BBX 29 29 2 0
BITMAP
B6000368
DB0006D8
C9000498
AD800DB8
A4800928
96C01B68
BA401268
AB6036A8
AD2025A8
A4B06D28
A6D04B28
AA58D2A8
A76896A8
A525A528
A5B56D28
A4924928
A5DBDD28
A5495528
A5EDB528
A5A4A528
A5B6E528
A5800528
A5800528
A5800528
A5800528
A5800528
A5800528
A5800528
A5800528
ENDCHAR
STARTCHAR N
ENCODING 78
SWIDTH 877 0
DWIDTH 32 0
BBX 28 29 2 0
BITMAP
D2401290
C9201290
EDB01290
A4901290
B6D81290
9B6C1290
A9241290
ADB61290
A4921290
A25B1290
AB6D9290
A5249290
A5B6D290
A4925290
A5492A90
A56DB290
A5A49290
A5B6DA90
A59B6A90
A5892490
A58DB690
A5849290
A582DB50
A5836D90
A5812490
A581B6D0
A5809250
A5804970
A5806DB0
ENDCHAR
STARTCHAR O
ENCODING 79
SWIDTH 933 0
DWIDTH 34 0
BBX 32 31 1 -1
BITMAP
001FF800
00F00E00
0187E380
063E7CC0
0CE00660
198FF1B0
13381CD8
3663C648
2C9FF324
693019B4
5B600496
D24002DA
D6C0025A
9680034A
9480016B
9480016B
9480016B
9680034A
D6C0025A
5A4006D2
5B600496
693019B4
248FF324
3663C648
13381CD8
098FF330
0CE00660
033FF8C0
0183C380
00700E00
001FF800
ENDCHAR
STARTCHAR P
ENCODING 80
SWIDTH 850 0
DWIDTH 31 0
BBX 27 29 2 0
BITMAP
FFFFF000
80001C00
BFFF8300
BFFFF980
A0000C80
A7FFE640
A4003B60
A5FF8920
A5FFE5A0
A58034A0
A58014A0
A58034A0
A58075A0
A5FFED20
A5801960
A5FFF240
A58006C0
A5801980
A5FFF300
A5800E00
A5FFFC00
A5FF8000
A5800000
A5800000
A5800000
A5800000
A5800000
A5800000
A5800000
ENDCHAR
STARTCHAR Q
ENCODING 81
SWIDTH 937 0
DWIDTH 34 0
BBX 32 34 1 -4
BITMAP
001FF800
00F00E00
0187E380
063E7CC0
0CE00660
198FF1B0
13381CD8
3663C648
2C9FF324
693019B4
5B600496
D24002DA
D6C0025A
9680034A
9480016B
9480016B
9480116B
96805B4A
D6C06A5A
5A4126D2
5B61B496
693099B4
248FF324
3663C648
13381CD8
098FF330
0CE00660
033FF8D0
0183C3B0
00700E90
001FFA48
00000360
00000120
00000180
ENDCHAR
STARTCHAR R
ENCODING 82
SWIDTH 843 0
DWIDTH 30 0
BBX 27 29 2 0
BITMAP
FFFFF000
80001C00
BFFF8300
BFFFF980
A0000C80
A7FFE640
A4003B60
A5FF8920
A5FFE5A0
A58035A0
A58035A0
A58035A0
A5FFED20
A5800960
A5807360
A5FFC6C0
A5800C80
A5FFF180
A5800700
A5807C00
A5FFF600
A5825200
A5835A00
A5816B00
A5812900
A581AD00
A580B580
A5809480
A580D6C0
ENDCHAR
STARTCHAR S
ENCODING 83
SWIDTH 682 0
DWIDTH 25 0
BBX 23 31 1 -1
BITMAP
03FF80
0E00F0
18FE18
33E7C6
660070
4CFF98
5B00E0
D23E00
96EF80
948000
948000
96FF00
D203C0
59C060
6CFF30
2601D8
33FE48
1C072C
0781A4
01FCB4
000694
000694
03FCB4
0879B4
0E032C
23FE48
1801D8
CFFF30
70F860
1E01C0
07FF00
ENDCHAR
STARTCHAR T
ENCODING 84
SWIDTH 591 0
DWIDTH 21 0
BBX 19 29 1 0
BITMAP
FFFFE0
000000
FFFFE0
FFFFE0
000000
FFFFE0
04A400
04A400
04A400
04A400
04A400
04A400
04A400
04A400
04A400
04A400
04A400
04A400
04A400
04A400
04A400
04A400
04A400
04A400
04A400
04A400
04A400
04A400
04A400
ENDCHAR
STARTCHAR U
ENCODING 85
SWIDTH 905 0
DWIDTH 33 0
BBX 30 30 1 -1
BITMAP
D28004A4
D28004A4
D28004A4
D28004A4
D28004A4
D28004A4
D28004A4
D28004A4
D28004A4
D28004A4
D28004A4
D28004A4
D28004A4
D28004A4
D28004A4
D28004A4
D28004A4
D28004A4
5AC005AC
5B60092C
69301B68
2D9FE658
26C30C90
137039B0
199FE360
0CE00EC0
063FF980
0387C300
00F01C00
003FF000
ENDCHAR
STARTCHAR V
ENCODING 86
SWIDTH 940 0
DWIDTH 34 0
BBX 32 29 1 0
BITMAP
B6800369
D2C0025B
5B4002D2
49600696
6D2004B4
25A00DA4
34B0092C
16900B48
12581A58
1B4812D0
09683690
0D2C24B0
05A42DA0
04B66960
06924B40
025ADA40
034A92C0
0168B680
012DA580
01A52D00
00956900
00D34B00
005ADA00
004E9200
0064B400
0025A400
003D2C00
001B6800
001A5800
ENDCHAR
STARTCHAR W
ENCODING 87
SWIDTH 1161 0
DWIDTH 42 0
BBX 40 29 1 0
BITMAP
B4812D0169
968169834B
D2C34B835A
5A435A8252
4A4252C2D2
6B42D64696
69669644B4
2D24B765A4
25A5A565AC
34A5AD2D2C
14BD2DA968
16A96CBB48
12EB4C9A58
1A4A5EDA50
0B5AD2D2D0
0952DA5690
09569B74B0
0D34B975A0
05B5A925A0
04A5ADAD20
04AD25E960
06E964CB40
02CB46CA40
025A42DAC0
035AC2D2C0
01D2C29680
019683B480
01B481B580
01B581AD80
ENDCHAR
STARTCHAR X
ENCODING 88
SWIDTH 876 0
DWIDTH 32 0
BBX 30 29 1 0
BITMAP
924036D8
49202490
6DB06DB0
2490DB60
36D89240
1B6DB6C0
09252480
0DB24900
0496DB00
02549200
036DB600
013B6C00
01924800
00B6D800
00249800
00492C00
00DB6400
00925600
01B6DA00
036DC900
02496D80
06DB2480
0DB6B240
0924DB60
1B6C4920
12486DB0
349036D8
6DB01248
DB601B6C
ENDCHAR
STARTCHAR Y
ENCODING 89
SWIDTH 789 0
DWIDTH 28 0
BBX 27 29 1 0
BITMAP
B5802D60
D6804B40
5AC05AC0
6B409680
2D60B580
35A1AD00
16B16B00
12D35A00
0B5AD600
096EB400
05A5AC00
04BD6800
02AB4800
025A5000
01529000
0154A000
01A52000
00A94000
00CA4000
005AC000
005AC000
005AC000
005AC000
005AC000
005AC000
005AC000
005AC000
005AC000
005AC000
ENDCHAR
STARTCHAR Z
ENCODING 90
SWIDTH 854 0
DWIDTH 31 0
BBX 28 29 1 0
BITMAP
FFFFFFF0
00000030
FFFFFEE0
FFFFF990
00000730
FFFFCCE0
00003990
FFFC6730
FFF9CCE0
00033990
000E6730
0019CCC0
00733980
00CE6700
0199CC00
06733800
0CCE6000
3399C000
66730000
9CCE0000
3398FFF0
66730000
9CC00000
33BFFFF0
E6000000
9CFFFFF0
33000000
E0000000
FFFFFFF0
ENDCHAR
STARTCHAR bracketleft
ENCODING 91
SWIDTH 320 0
DWIDTH 12 0
BBX 9 33 2 -3
BITMAP
FF80
8000
BF80
A000
A000
A780
A400
A400
A400
A400
A400
A400
A400
A400
A400
A400
A400
A400
A400
A400
A400
A400
A400
A400
A400
A400
A780
A000
A000
BF80
8000
FF80
FF80
ENDCHAR
STARTCHAR backslash
ENCODING 92
SWIDTH 448 0
DWIDTH 16 0
BBX 14 32 1 -3
BITMAP
B400
9600
D200
5A00
4A00
4B00
6900
2D00
2500
2580
3480
1680
1280
12C0
1A40
0B40
0940
0960
0D20
05A0
04A0
04B0
0690
02D0
0250
0258
0348
0168
0128
012C
01A4
00B4
ENDCHAR
STARTCHAR bracketright
ENCODING 93
SWIDTH 319 0
DWIDTH 12 0
BBX 9 33 1 -3
BITMAP
FF80
0080
FC80
0480
0480
F480
1480
1480
1480
1480
1480
1480
1480
1480
1480
1480
1480
1480
1480
1480
1480
1480
1480
1480
1480
1480
F480
0480
0480
FC80
0080
FF80
FF80
ENDCHAR
STARTCHAR asciicircum
ENCODING 94
SWIDTH 475 0
DWIDTH 17 0
BBX 15 14 1 11
BITMAP
06C0
0740
0D60
0920
0BB0
1A90
12D0
3658
2448
2C68
6824
4834
D816
9012
ENDCHAR
STARTCHAR underscore
ENCODING 95
SWIDTH 511 0
DWIDTH 18 0
BBX 15 6 2 -6
BITMAP
FFFE
0000
0000
FFFE
0000
FFFE
ENDCHAR
STARTCHAR grave
ENCODING 96
SWIDTH 472 0
DWIDTH 17 0
BBX 15 8 1 26
BITMAP
3000
1C00
E700
38C0
0E30
038E
00E4
0038
ENDCHAR
STARTCHAR a
ENCODING 97
SWIDTH 832 0
DWIDTH 30 0
BBX 27 27 1 -1
BITMAP
003FC000
01E0F000
07041C00
0C7FE600
19C03300
331F8D80
2671E6C0
6D803240
493F9B60
5A60CD20
D6C025A0
968035A0
948014A0
B48014A0
948014A0
968014A0
D2C014A0
5A6054A0
493FD4A0
6DC014A0
3679D4A0
131F14A0
09E054A0
067FD4A0
038014A0
00FFD4A0
001F0000
ENDCHAR
STARTCHAR b
ENCODING 98
SWIDTH 720 0
DWIDTH 26 0
BBX 23 25 2 0
BITMAP
FFFFC0
800070
BFFF98
A001CC
A00064
A7FFB4
A40096
A400D6
A40096
A5FFB4
A40024
A5FFCC
A5FFD8
A4006C
A5FF34
A40196
A400D6
A400D6
A40196
A5FF34
A4006C
A5FFC8
A40038
A401E0
A5FF80
ENDCHAR
STARTCHAR c
ENCODING 99
SWIDTH 736 0
DWIDTH 27 0
BBX 25 28 1 -1
BITMAP
000E0000
007FE000
01803800
063F8E00
0CF0F300
19861980
323FCC00
24E07600
6D9F1800
4B39D000
DA606000
D6C00000
94800000
94800000
B4800000
94800000
96800000
D2C04000
5B606000
493FD800
6D863000
2660E600
133F8D00
19C03980
0C7FE600
031F0C00
01C07800
007FE000
ENDCHAR
STARTCHAR d
ENCODING 100
SWIDTH 833 0
DWIDTH 30 0
BBX 27 25 2 0
BITMAP
FFFFE000
80003800
BFFF8C00
A003E600
A0003B00
A7FF8D80
A4006480
A5FE36C0
A5FF9A40
A580CB40
A5806960
A5802D60
A5802D60
A5802D60
A5806960
A580DB40
A5FF9240
A40036C0
A401EC80
A7FF9980
A0003300
BFFFE600
80001C00
8000F000
FFFFC000
ENDCHAR
STARTCHAR e
ENCODING 101
SWIDTH 666 0
DWIDTH 24 0
BBX 21 25 2 0
BITMAP
A5FFF8
A58000
A5FFF8
A58000
A58000
A5FFF8
A58000
A58000
A58000
A5FFF0
A58000
A58000
A5FFF0
A58000
A5FFF0
A58000
A58000
A58000
A58000
A5FFF8
A58000
A5FFF8
A58000
A58000
A5FFF8
ENDCHAR
STARTCHAR f
ENCODING 102
SWIDTH 625 0
DWIDTH 23 0
BBX 19 25 2 0
BITMAP
A5FFE0
A58000
A5FFE0
A58000
A58000
A5FFE0
A58000
A58000
A58000
A58000
A5FFC0
A58000
A5FFC0
A5FFC0
A58000
A5FFC0
A58000
A58000
A58000
A58000
A58000
A58000
A58000
A58000
A58000
ENDCHAR
STARTCHAR g
ENCODING 103
SWIDTH 827 0
DWIDTH 30 0
BBX 27 28 1 -1
BITMAP
000E0000
007FE000
01803800
063F8E00
0CF0F300
19861980
323FCC00
24E07600
6D9F1800
4B39D000
DA606000
D6C00000
94800000
94800000
B48035A0
948035A0
968035A0
D2C035A0
5B6035A0
493FF5A0
6D8635A0
266075A0
133FF5A0
19C035A0
0C7FF5A0
031F35A0
01C075A0
007FE000
ENDCHAR
STARTCHAR h
ENCODING 104
SWIDTH 830 0
DWIDTH 30 0
BBX 26 25 2 0
BITMAP
A5806B40
A5806B40
A5806B40
A5806B40
A5806B40
A5806B40
A5806B40
A5806B40
A5806B40
A5FFEB40
A5806B40
A5FFEB40
A5806B40
A5806B40
A5FFEB40
A5806B40
A5806B40
A5806B40
A5806B40
A5806B40
A5806B40
A5806B40
A5806B40
A5806B40
A5806B40
ENDCHAR
STARTCHAR i
ENCODING 105
SWIDTH 337 0
DWIDTH 12 0
BBX 9 25 2 0
BITMAP
A580
A580
A580
A580
A580
A580
A580
A580
A580
A580
A580
A580
A580
A580
A580
A580
A580
A580
A580
A580
A580
A580
A580
A580
A580
ENDCHAR
STARTCHAR j
ENCODING 106
SWIDTH 393 0
DWIDTH 14 0
BBX 12 29 1 -4
BITMAP
16B0
16B0
16B0
16B0
16B0
16B0
16B0
16B0
16B0
16B0
16B0
16B0
16B0
16B0
16B0
16B0
16B0
16B0
34B0
65A0
CD20
1960
F240
86C0
1980
F300
0E00
F800
E000
ENDCHAR
STARTCHAR k
ENCODING 107
SWIDTH 801 0
DWIDTH 29 0
BBX 26 25 2 0
BITMAP
A580DAC0
A581B480
A5812D80
A5834900
A5825B00
A5869200
A585B400
A5892400
A59B6800
A5925800
A5B69000
A5A5B000
A5ED2000
A5A4B000
A5B6D000
A5925800
A58B6800
A5892400
A585B600
A5869200
A5825B00
A5836900
A5812D80
A581B480
A580D2C0
ENDCHAR
STARTCHAR l
ENCODING 108
SWIDTH 583 0
DWIDTH 21 0
BBX 18 25 2 0
BITMAP
A58000
A58000
A58000
A58000
A58000
A58000
A58000
A58000
A58000
A58000
A58000
A58000
A58000
A58000
A58000
A58000
A58000
A58000
A58000
A5FFC0
A58000
A5FFC0
A58000
A58000
A5FFC0
ENDCHAR
STARTCHAR m
ENCODING 109
SWIDTH 1167 0
DWIDTH 42 0
BBX 40 27 1 0
BITMAP
001C003800
01FFC3FF80
07007E00E0
0C7F18FE30
19C3CF8798
360876106C
6CFF93FF34
4980CB0192
5B3E697CDA
52C32DC64A
D681A5814A
D680A5014B
D680A5014B
D680A5014B
D680A5014B
D680A5014B
D680A5014B
D680A5014B
D680A5014B
D680A5014B
D680A5014B
D680A5014B
D680A5014B
D680A5014B
D680A5014B
D680A5014B
D680A5014B
ENDCHAR
STARTCHAR n
ENCODING 110
SWIDTH 787 0
DWIDTH 28 0
BBX 25 25 2 0
BITMAP
DB603580
C9203580
EDB03580
A4903580
B6D83580
BA483580
A9243580
ADB63580
A4923580
A6DB3580
AA493580
A76DB580
A5B6B580
A4925580
A4DB7580
A4492580
A46DB580
A4249580
A416DD80
A41B6980
A4092580
A40DB780
A4049380
A406DB80
A4036D80
ENDCHAR
STARTCHAR o
ENCODING 111
SWIDTH 833 0
DWIDTH 30 0
BBX 28 28 1 -1
BITMAP
000E0000
007FE000
01803800
063F8E00
0CF0F300
19841980
323FCC80
24E07640
6D9F1B60
4B39C920
DA606DA0
D6C034B0
948016B0
94801690
B4801690
948016B0
968036B0
D2C025A0
5B606D20
493FD960
6D873240
2660E6C0
133F8C80
19C03900
0C7FE600
031F0C00
01C07800
007FC000
ENDCHAR
STARTCHAR p
ENCODING 112
SWIDTH 781 0
DWIDTH 28 0
BBX 25 25 2 0
BITMAP
FFFFE000
80003800
BFFF8C00
A001E600
A0003200
A7FFD900
A4006D00
A5FF2580
A5FFB480
A5809480
A581B480
A5FF3580
A5806D80
A5FFC900
A5801300
A581E600
A5FF8C00
A5803800
A5FFE000
A5800000
A5800000
A5800000
A5800000
A5800000
A5800000
ENDCHAR
STARTCHAR q
ENCODING 113
SWIDTH 788 0
DWIDTH 28 0
BBX 26 29 1 -4
BITMAP
01FFFFC0
070000C0
0C7FFEC0
19E002C0
330002C0
64FFFAC0
49801AC0
5B3FDAC0
D27FDAC0
96805AC0
B4805AC0
94805AC0
94805AC0
D6C05AC0
D27F5AC0
49005AC0
6CFF5AC0
263F5AC0
33805AC0
18FF5AC0
0E005AC0
03FF5AC0
007F5AC0
00005AC0
00005AC0
00005AC0
00005AC0
00005AC0
00005AC0
ENDCHAR
STARTCHAR r
ENCODING 114
SWIDTH 831 0
DWIDTH 30 0
BBX 27 25 2 0
BITMAP
FFFFF800
80000E00
BFFFE300
A0007980
A0000C80
A7FFE6C0
A4001B40
A5FFC960
A5FFED60
A5802D60
A5FFED60
A5FFC960
A5801B40
A5FFE6C0
A5800C80
A5FFF980
A5FFE300
A5800E00
A5FFFC00
A584A400
A586B600
A582D600
A5835A00
A5814B00
A581AD00
ENDCHAR
STARTCHAR s
ENCODING 115
SWIDTH 683 0
DWIDTH 25 0
BBX 23 27 1 -1
BITMAP
01FF00
0783E0
180038
33FF8E
6600E4
48FE18
D387C0
960060
940000
960000
D3FF00
4807E0
670030
31FF98
1C00CC
07FE24
000FB4
000094
000094
0C01B4
27FF24
38786C
8F03D8
63FE30
3800E0
0FFF80
003800
ENDCHAR
STARTCHAR t
ENCODING 116
SWIDTH 588 0
DWIDTH 21 0
BBX 19 25 1 0
BITMAP
FFFFE0
000000
FFFFE0
000000
000000
FFFFE0
000000
04A400
04A400
04A400
04A400
04A400
04A400
04A400
04A400
04A400
04A400
04A400
04A400
04A400
04A400
04A400
04A400
04A400
04A400
ENDCHAR
STARTCHAR u
ENCODING 117
SWIDTH 795 0
DWIDTH 29 0
BBX 26 26 1 -1
BITMAP
D6806B40
D6806B40
D6806B40
D6806B40
D6806B40
D6806B40
D6806B40
D6806B40
D6806B40
D6806B40
D6806B40
D6806B40
D6806B40
D6806B40
D2804B40
52C04A40
5A60DAC0
4B3FB6C0
6D8C6480
24E0CD80
333F9900
19807200
0CFFC400
071E1800
01C07000
007FC000
ENDCHAR
STARTCHAR v
ENCODING 118
SWIDTH 855 0
DWIDTH 31 0
BBX 29 25 1 0
BITMAP
B6801B58
D24012D0
5B401690
696034B0
2D202DA0
25A06920
34B04B60
16D05A40
1258D2C0
0B48B680
0969A480
0D2D2D80
05B56900
04934B00
06D25A00
025ED200
0354B600
0165A400
012D2C00
01A96800
009B4800
00D2D800
00569000
0074B000
006DA000
ENDCHAR
STARTCHAR w
ENCODING 119
SWIDTH 1129 0
DWIDTH 41 0
BBX 38 26 1 -1
BITMAP
D6816B06B4
D6816B06B4
D6816B06B4
D6816B06B4
D6816B06B4
D6816B06B4
D6816B06B4
D6816B06B4
D6816B06B4
D6816B06B4
D6816B06B4
D6816B06B4
D6816B06B4
D6816B06B4
D6816B06B4
D2816B04B4
52C34B04A4
5A7E5AF9A4
498092036C
6CFF37FE48
26186C70D8
1381CF0730
18FF39FC60
06007C01C0
03FFC7FF00
007E00F800
ENDCHAR
STARTCHAR x
ENCODING 120
SWIDTH 790 0
DWIDTH 28 0
BBX 27 25 1 0
BITMAP
DB61BB60
4DB124C0
64936D80
36DEC900
12649B00
192DB600
0DB92400
04D36C00
06B6C800
03249800
016DB000
01D92000
00926000
01B6D000
03649000
024DD800
06DB4800
0C926C00
09B73600
1B659200
124EDB00
26DA4980
6D936C80
493136C0
DB609B60
ENDCHAR
STARTCHAR y
ENCODING 121
SWIDTH 733 0
DWIDTH 26 0
BBX 25 25 1 0
BITMAP
B580B580
D2C12900
4A414B00
69625A00
25A2D600
34B6B400
12D5AC00
0A4D6800
096B5800
05BAD000
0496B000
02F5A000
02AD2000
016B4000
015A4000
00D28000
00948000
00948000
00948000
00948000
00948000
00948000
00948000
00948000
00948000
ENDCHAR
STARTCHAR z
ENCODING 122
SWIDTH 714 0
DWIDTH 26 0
BBX 24 25 1 0
BITMAP
FFFB6D
0006DB
FFFC92
FFE9B6
001B64
FFD248
0036D8
006C90
0049A0
00DB60
019240
0136C0
036C80
024900
06DB00
0D9200
093600
1B6C00
324800
26DBFE
6D9000
4937FE
DB6800
B24000
A6DFFE
ENDCHAR
STARTCHAR braceleft
ENCODING 123
SWIDTH 396 0
DWIDTH 14 0
BBX 12 38 1 -8
BITMAP
03F0
0600
0CF0
19C0
1200
36F0
3580
2580
2580
2580
2580
2580
2580
2580
2580
2500
F500
3D00
0600
F200
1B00
CD00
6500
2580
2580
2580
2580
2580
2580
2580
3580
34F0
1230
1B80
0CF0
0600
03F0
0070
ENDCHAR
STARTCHAR bar
ENCODING 124
SWIDTH 266 0
DWIDTH 10 0
BBX 6 33 2 -4
BITMAP
A4
A4
A4
A4
A4
A4
A4
A4
A4
A4
A4
A4
A4
A4
A4
A4
A4
A4
A4
A4
A4
A4
A4
A4
A4
A4
A4
A4
A4
A4
A4
A4
A4
ENDCHAR
STARTCHAR braceright
ENCODING 125
SWIDTH 396 0
DWIDTH 14 0
BBX 12 38 1 -8
BITMAP
FC00
0600
F300
1D80
0680
F2C0
1A40
0B40
0B40
0B40
0B40
0B40
0B40
0B40
0B40
0930
0D80
04F0
0610
0F80
08F0
0B00
0B40
0B40
0B40
0B40
0B40
0B40
0B40
0B40
1A40
F240
C6C0
0C80
F100
0700
FC00
E000
ENDCHAR
STARTCHAR asciitilde
ENCODING 126
SWIDTH 665 0
DWIDTH 24 0
BBX 22 7 1 20
BITMAP
07FE2C
3FFE2C
60006C
4FFFC8
D80018
D1FFF0
D1FFC0
ENDCHAR
STARTCHAR uni00A0
ENCODING 160
SWIDTH 108 0
DWIDTH 4 0
BBX 1 1 0 0
BITMAP
00
ENDCHAR
STARTCHAR exclamdown
ENCODING 161
SWIDTH 336 0
DWIDTH 12 0
BBX 9 30 2 -1
BITMAP
A580
A580
A580
A580
A580
A580
A580
A580
A580
A580
A580
A580
A580
A580
A580
A580
A580
A580
A580
A580
A580
0000
0000
0000
FF80
0000
FF80
FF80
0000
FF80
ENDCHAR
STARTCHAR cent
ENCODING 162
SWIDTH 708 0
DWIDTH 26 0
BBX 24 35 1 -3
BITMAP
003200
003200
003200
003200
003F00
01F3E0
070038
0C7F8C
19C0E6
331E33
267F8C
6D8068
493F30
5A6180
D6C0C0
968000
948000
948000
968000
D6C080
DA61C0
4B3F30
6D8068
24F1CC
333F1B
198066
0CFFCC
070838
01C1E0
007F80
002100
003200
003200
003200
003200
ENDCHAR
STARTCHAR sterling
ENCODING 163
SWIDTH 689 0
DWIDTH 25 0
BBX 23 30 1 0
BITMAP
01FFC0
070070
0C7E1C
13E7E6
260030
6CFF88
4980E0
5B3E00
D2FF80
D28000
D28000
D28000
D28000
D2BFE0
D28000
D2BFE0
D2BFE0
D28000
D2BFE0
D28000
D28000
D28000
D28000
D28000
D2FFE0
D28000
D2FFE0
D28000
D28000
D2FFE0
ENDCHAR
STARTCHAR currency
ENCODING 164
SWIDTH 715 0
DWIDTH 26 0
BBX 24 28 1 -1
BITMAP
0C0030
240068
32004C
DB009B
4DFFB6
65EFA4
3700CC
1CFE38
0983B0
1B00D0
120048
160068
340068
340028
340068
140068
160048
1200D8
1B0090
1DE730
167C68
2701EC
6DFF36
D90093
9200CA
26006C
0C0030
080020
ENDCHAR
STARTCHAR yen
ENCODING 165
SWIDTH 796 0
DWIDTH 29 0
BBX 27 29 1 0
BITMAP
B5802D60
52806B40
4A405AC0
6940D680
2D20B580
34A1AD00
16916900
1AD34A00
0B4A5200
0D6A9400
05A4A400
06B52800
02D94800
024A5000
01729000
0154B000
00A5A000
00AD6000
006B4000
005A4000
1F5A7E00
005A4000
005A4000
1F5A7E00
005A4000
005A4000
005A4000
005A4000
005A4000
ENDCHAR
STARTCHAR brokenbar
ENCODING 166
SWIDTH 263 0
DWIDTH 10 0
BBX 6 33 2 -4
BITMAP
A4
A4
A4
A4
A4
A4
A4
A4
A4
A4
A4
A4
A4
A4
00
00
00
00
00
A4
A4
A4
A4
A4
A4
A4
A4
A4
A4
A4
A4
A4
A4
ENDCHAR
STARTCHAR section
ENCODING 167
SWIDTH 108 0
DWIDTH 4 0
BBX 1 1 0 0
BITMAP
00
ENDCHAR
STARTCHAR dieresis
ENCODING 168
SWIDTH 556 0
DWIDTH 20 0
BBX 18 4 1 27
BITMAP
D21AC0
D21AC0
D21AC0
D21AC0
ENDCHAR
STARTCHAR copyright
ENCODING 169
SWIDTH 869 0
DWIDTH 31 0
BBX 29 29 1 1
BITMAP
003FF000
00FCFC00
03C00E00
07000380
0C0001C0
181FE0C0
387CF860
30E01C70
61C00C30
63800030
63000018
C3000018
C6000018
C6000018
C6000018
C6000018
C7000018
C3000018
63800018
61800430
30C01C30
30707860
183FF0E0
1C0F81C0
0E000380
07800F00
01E03C00
007FF800
000F8000
ENDCHAR
STARTCHAR ordfeminine
ENCODING 170
SWIDTH 833 0
DWIDTH 30 0
BBX 28 27 1 -1
BITMAP
003FC000
01F0F800
03060C00
0E7FE600
19C03900
131F8C80
3670E6C0
6CC03240
493F9960
5B606D20
D2C025A0
D68034B0
968016B0
968016B0
968016B0
D68016B0
D2C016B0
5B6056B0
693FD6B0
24C016B0
3679D6B0
1B1F16B0
0CE056B0
063FD6B0
038016B0
00FFD6B0
000F0000
ENDCHAR
STARTCHAR guillemotleft
ENCODING 171
SWIDTH 911 0
DWIDTH 33 0
BBX 30 18 1 4
BITMAP
00040004
003C003C
00E000E0
078C078C
1C381C38
F1E2F1E4
8F1C871C
38703C70
E3C0E3C0
8EE08EE0
78387838
C78CC78C
78E078E0
0E3C0E3C
03C403C4
00700070
001C001C
00040004
ENDCHAR
STARTCHAR logicalnot
ENCODING 172
SWIDTH 718 0
DWIDTH 26 0
BBX 22 11 2 8
BITMAP
FFFFB4
0000B4
0000B4
FFFFB4
0000B4
FFFFB4
0000B4
0000B4
0000B4
0000B4
0000B4
ENDCHAR
STARTCHAR registered
ENCODING 174
SWIDTH 869 0
DWIDTH 31 0
BBX 29 29 1 1
BITMAP
003FF000
00FCFC00
03C00E00
07000380
0C0001C0
180000C0
387FC060
307FF070
60603830
60601830
60601C18
C0601C18
C0601818
C0603818
C07FF018
C07FC018
C060C018
C060E018
60606018
60607030
30603030
30603860
180000E0
1C0001C0
0E000380
07800F00
01E03C00
007FF800
000F8000
ENDCHAR
STARTCHAR degree
ENCODING 176
SWIDTH 330 0
DWIDTH 12 0
BBX 10 9 1 28
BITMAP
3F00
6180
5E80
A340
A140
A340
5E80
6180
3E00
ENDCHAR
STARTCHAR plusminus
ENCODING 177
SWIDTH 598 0
DWIDTH 22 0
BBX 19 22 1 1
BITMAP
029400
029400
029400
029400
029400
FE97E0
FE97E0
029400
FE97E0
029400
FE97E0
FE97E0
029400
029400
029400
029400
029400
000000
7FFFC0
000000
7FFFC0
7FFFC0
ENDCHAR
STARTCHAR uni00B2
ENCODING 178
SWIDTH 435 0
DWIDTH 16 0
BBX 14 23 1 6
BITMAP
3FE0
6030
0398
7FEC
002C
002C
0068
00D8
0090
01A0
0360
06C0
0480
0900
1B00
1600
2400
4C00
1000
FFF8
0000
FFF8
FFF8
ENDCHAR
STARTCHAR uni00B3
ENCODING 179
SWIDTH 515 0
DWIDTH 19 0
BBX 17 24 1 5
BITMAP
7FC000
E07000
021800
FFE400
003600
7F9200
60DA00
004A00
004A00
0FDA00
0FFA00
000C00
0FE600
003B00
0F8900
0FED00
002580
002500
7FED00
001900
787300
1FC600
801C00
FFF000
ENDCHAR
STARTCHAR acute
ENCODING 180
SWIDTH 472 0
DWIDTH 17 0
BBX 15 8 1 26
BITMAP
0018
0070
01CE
0738
18E0
E380
4E00
3800
ENDCHAR
STARTCHAR uni00B5
ENCODING 181
SWIDTH 802 0
DWIDTH 29 0
BBX 25 29 2 -4
BITMAP
A5805280
A5805280
A5805280
A5805280
A5805280
A5805280
A5805280
A5805280
A5805280
A5805280
A5805280
A5805280
A5805280
A5805280
A580D280
A580D680
A581B680
A5FF2580
A59C6D00
A581D900
A5FF3200
A5806600
A5FFCC00
A5BC3800
A580E000
A5FF8000
A5800000
A5800000
A5800000
ENDCHAR
STARTCHAR paragraph
ENCODING 182
SWIDTH 676 0
DWIDTH 24 0
BBX 22 29 1 -4
BITMAP
03FFFC
06000C
18FFEC
33C02C
26002C
6CFFAC
5B01AC
D27DAC
96FDAC
9685AC
96C5AC
D27DAC
5B05AC
49FDAC
6605AC
33C5AC
18FDAC
0E05AC
03FDAC
0005AC
0005AC
0005AC
0005AC
0005AC
0005AC
0005AC
0005AC
0005AC
0007BC
ENDCHAR
STARTCHAR periodcentered
ENCODING 183
SWIDTH 260 0
DWIDTH 9 0
BBX 6 6 2 14
BITMAP
FC
00
FC
FC
00
FC
ENDCHAR
STARTCHAR cedilla
ENCODING 184
SWIDTH 321 0
DWIDTH 12 0
BBX 8 12 2 -14
BITMAP
09
39
61
87
9F
B0
A0
B0
9F
C0
7F
07
ENDCHAR
STARTCHAR uni00B9
ENCODING 185
SWIDTH 359 0
DWIDTH 13 0
BBX 10 20 1 9
BITMAP
FFC0
0000
FFC0
FFC0
0940
0940
0940
0940
0940
0940
0940
0940
0940
0940
0940
0940
0940
0940
0940
0940
ENDCHAR
STARTCHAR ordmasculine
ENCODING 186
SWIDTH 835 0
DWIDTH 30 0
BBX 28 28 1 -1
BITMAP
00070000
007FE000
01C03800
071FC600
0CF0F300
19821980
133FCCC0
26E07240
6D8F9B60
4939C920
5A6065A0
D2C034B0
D6801690
96801290
94801290
96801290
D6801690
D24034B0
5B606DA0
693FC920
2CC63360
367066C0
131FCC80
09C03980
047FE300
030F0C00
01E03800
007FE000
ENDCHAR
STARTCHAR guillemotright
ENCODING 187
SWIDTH 912 0
DWIDTH 33 0
BBX 30 18 1 4
BITMAP
C0004000
78007800
0E000E00
E3C063C0
38703870
8F1C8F1C
E1C261C4
3C781C78
070C078C
0CE20CE4
383C383C
E3C463C4
1E3C0E3C
70E070E0
C7804780
1C001C00
F0007000
80008000
ENDCHAR
STARTCHAR onequarter
ENCODING 188
SWIDTH 1236 0
DWIDTH 45 0
BBX 43 32 1 -3
BITMAP
FFC01AC00000
000016800000
FFC016800000
FFC034800000
0B4025800000
0B402D000000
0B402D01B600
0B4069012400
0B404B036C00
0B405A024800
0B405A02D800
0B40D2069000
0B409605B000
0B40B40D2000
0B40B40B6580
0B41A41B4580
0B412C12C580
0B416836C580
0B4168000000
0B43483FFFE0
000258000000
0002D03FFFE0
0002D03FFFE0
000690000000
0004B03FFFE0
0005A0000000
0005A0000580
000D20000580
000960000580
000B40000000
000B40000000
001AC0000000
ENDCHAR
STARTCHAR onehalf
ENCODING 189
SWIDTH 1154 0
DWIDTH 42 0
BBX 40 32 1 -3
BITMAP
FFC01AC000
0000168000
FFC0168000
FFC0348000
0B40258000
0B402D0000
0B402D07F0
0B40693F7C
0B404B0006
0B405A1FF2
0B405A101B
0B40D2000B
0B4096001A
0B40B40036
0B40B40024
0B41A40068
0B412C00D8
0B416800B0
0B41680120
0B43480360
00025806C0
0002D00580
0002D00900
0006901B00
0004B02400
0005A03FFC
0005A00000
000D200000
0009603FFC
000B400000
000B400000
001AC00000
ENDCHAR
STARTCHAR threequarters
ENCODING 190
SWIDTH 1345 0
DWIDTH 48 0
BBX 47 32 1 -3
BITMAP
7FC000D60000
E07000B40000
071800B40000
FFEC01A40000
0036012C0000
7F9201680000
60DA01681B60
004A03481240
004A025836C0
0FCA02D02480
0FFA02D06D80
000C06904900
0FE604B0DB00
003B05A0D200
0F8905A0B658
0FED0D21A458
002509616C58
00250B434858
7FED0B400000
00191A43FFFE
787212C00000
3FC61683FFFE
801C1683FFFE
FFF034800000
00002583FFFE
00002D000000
00002D000058
000069000058
00004B000058
00005A000000
00005A000000
0000D6000000
ENDCHAR
STARTCHAR questiondown
ENCODING 191
SWIDTH 693 0
DWIDTH 25 0
BBX 23 30 1 0
BITMAP
07FF00
1C01C0
61FC60
CF9F10
3801C8
23FE6C
0E0324
00F896
03DED2
000252
000252
0006D2
16BC96
1681B4
16BE64
1680C8
168798
16BE30
1680E0
16BF80
168000
168000
000000
000000
3FC000
000000
3FC000
000000
000000
3FC000
ENDCHAR
STARTCHAR Agrave
ENCODING 192
SWIDTH 936 0
DWIDTH 34 0
BBX 32 41 1 0
BITMAP
03000000
00C00000
0E300000
038C0000
00E38000
0038E000
000E4000
00038000
00000000
00000000
00000000
00000000
001A5800
003B6800
002D2C00
0025A400
0064B400
00569600
00DAD200
00924B00
00B56900
01A52D00
012DA580
036AB480
024A92C0
02DADA40
06964B40
04B46960
05A42D20
0D2C24B0
0B683690
1A5BD2D0
12D43A58
16900B48
34BFF96C
2DA00DA4
692FF4B4
4B7FFE96
5A4002D2
D2C0025B
B6800369
ENDCHAR
STARTCHAR Aacute
ENCODING 193
SWIDTH 936 0
DWIDTH 34 0
BBX 32 41 1 0
BITMAP
000001C0
00000700
00001C70
000071C0
0001C700
00071C00
00047000
0001C000
00000000
00000000
00000000
00000000
001A5800
003B6800
002D2C00
0025A400
0064B400
00569600
00DAD200
00924B00
00B56900
01A52D00
012DA580
036AB480
024A92C0
02DADA40
06964B40
04B46960
05A42D20
0D2C24B0
0B683690
1A5BD2D0
12D43A58
16900B48
34BFF96C
2DA00DA4
692FF4B4
4B7FFE96
5A4002D2
D2C0025B
B6800369
ENDCHAR
STARTCHAR Acircumflex
ENCODING 194
SWIDTH 936 0
DWIDTH 34 0
BBX 32 41 1 0
BITMAP
00024000
00074000
00056000
00052000
000DB000
000A9000
001AD000
00125800
00366800
00000000
00000000
00000000
001A5800
003B6800
002D2C00
0025A400
0064B400
00569600
00DAD200
00924B00
00B56900
01A52D00
012DA580
036AB480
024A92C0
02DADA40
06964B40
04B46960
05A42D20
0D2C24B0
0B683690
1A5BD2D0
12D43A58
16900B48
34BFF96C
2DA00DA4
692FF4B4
4B7FFE96
5A4002D2
D2C0025B
B6800369
ENDCHAR
STARTCHAR Atilde
ENCODING 195
SWIDTH 936 0
DWIDTH 34 0
BBX 32 39 1 0
BITMAP
003FF160
01FFF160
03000340
027FFE40
06C000C0
049FFF80
049FFE00
00000000
00000000
00000000
001A5800
003B6800
002D2C00
0025A400
0064B400
00569600
00DAD200
00924B00
00B56900
01A52D00
012DA580
036AB480
024A92C0
02DADA40
06964B40
04B46960
05A42D20
0D2C24B0
0B683690
1A5BD2D0
12D43A58
16900B48
34BFF96C
2DA00DA4
692FF4B4
4B7FFE96
5A4002D2
D2C0025B
B6800369
ENDCHAR
STARTCHAR Adieresis
ENCODING 196
SWIDTH 936 0
DWIDTH 34 0
BBX 32 37 1 0
BITMAP
01AC2500
01AC2500
01AC2500
01AC2500
00000000
00000000
00000000
00000000
001A5800
003B6800
002D2C00
0025A400
0064B400
00569600
00DAD200
00924B00
00B56900
01A52D00
012DA580
036AB480
024A92C0
02DADA40
06964B40
04B46960
05A42D20
0D2C24B0
0B683690
1A5BD2D0
12D43A58
16900B48
34BFF96C
2DA00DA4
692FF4B4
4B7FFE96
5A4002D2
D2C0025B
B6800369
ENDCHAR
STARTCHAR Aring
ENCODING 197
SWIDTH 936 0
DWIDTH 34 0
BBX 32 39 1 0
BITMAP
0007E000
000C3000
001BD000
00147800
00142800
00147800
000BD000
000C3000
0007C000
00000000
001A5800
003B6800
002D2C00
0025A400
0064B400
00569600
00DAD200
00924B00
00B56900
01A52D00
012DA580
036AB480
024A92C0
02DADA40
06964B40
04B46960
05A42D20
0D2C24B0
0B683690
1A5BD2D0
12D43A58
16900B48
34BFF96C
2DA00DA4
692FF4B4
4B7FFE96
5A4002D2
D2C0025B
B6800369
ENDCHAR
STARTCHAR AE
ENCODING 198
SWIDTH 1198 0
DWIDTH 43 0
BBX 41 29 1 0
BITMAP
001A5FFFFF80
003B68000000
002D2FFFFF80
0025A7FFFF80
0064B4000000
005693FFFF80
00DADA000000
00924B000000
00B569000000
01A52D000000
012DA5800000
016AB6FFFE00
034A92FFFE00
02DADA400000
06964B7FFE00
04B469600000
05A42D3FFE00
0D2C24BFFE00
0B6836900000
1A4BD2D00000
12DC3A580000
16900B480000
34BFF9280000
2DA00DAFFF80
692FF4B40000
4B7FFE97FF80
5A4002D20000
D2C0025A0000
B680034BFF80
ENDCHAR
STARTCHAR Ccedilla
ENCODING 199
SWIDTH 852 0
DWIDTH 31 0
BBX 29 43 1 -13
BITMAP
001FF800
00F00E00
0187E380
063EFCC0
0CE00660
198FF1B0
13381CD8
3663C660
2C9FF340
69301980
5B600600
D2400400
D6C00000
96800000
94800000
94800000
94800000
96800000
D6C00000
5A400400
5B600600
69301980
248FF340
3663C660
13381CD8
098FF330
0CE00660
033FF8C0
0183C380
00700E00
001FF800
0002C000
000EC000
0018C000
0021C000
002FC000
00280000
00280000
002C0000
0027C000
00300000
001FC000
0001C000
ENDCHAR
STARTCHAR Egrave
ENCODING 200
SWIDTH 706 0
DWIDTH 25 0
BBX 23 41 1 0
BITMAP
300000
1C0000
E70000
38C000
0E3000
038E00
00E400
003800
000000
000000
000000
000000
52FFFE
52C000
52FFFE
52FFFE
52C000
52FFFE
52C000
52C000
52C000
52C000
52C000
52FF00
52FF00
52C000
52FF00
52C000
52FF00
52FF00
52C000
52C000
52C000
52C000
52C000
52FFFE
52C000
52FFFE
52C000
52C000
52FFFE
ENDCHAR
STARTCHAR Eacute
ENCODING 201
SWIDTH 706 0
DWIDTH 25 0
BBX 23 41 2 0
BITMAP
000038
0000E0
00038E
000E38
0038E0
00E380
008E00
003800
000000
000000
000000
000000
A5FFFC
A58000
A5FFFC
A5FFFC
A58000
A5FFFC
A58000
A58000
A58000
A58000
A58000
A5FE00
A5FE00
A58000
A5FE00
A58000
A5FE00
A5FE00
A58000
A58000
A58000
A58000
A58000
A5FFFC
A58000
A5FFFC
A58000
A58000
A5FFFC
ENDCHAR
STARTCHAR Ecircumflex
ENCODING 202
SWIDTH 706 0
DWIDTH 25 0
BBX 22 41 2 0
BITMAP
005800
00E800
00AC00
01A400
013600
015200
035A00
024B00
06CD00
000000
000000
000000
A5FFFC
A58000
A5FFFC
A5FFFC
A58000
A5FFFC
A58000
A58000
A58000
A58000
A58000
A5FE00
A5FE00
A58000
A5FE00
A58000
A5FE00
A5FE00
A58000
A58000
A58000
A58000
A58000
A5FFFC
A58000
A5FFFC
A58000
A58000
A5FFFC
ENDCHAR
STARTCHAR Edieresis
ENCODING 203
SWIDTH 706 0
DWIDTH 25 0
BBX 22 37 2 0
BITMAP
2584A0
2584A0
2584A0
2584A0
000000
000000
000000
000000
A5FFFC
A58000
A5FFFC
A5FFFC
A58000
A5FFFC
A58000
A58000
A58000
A58000
A58000
A5FE00
A5FE00
A58000
A5FE00
A58000
A5FE00
A5FE00
A58000
A58000
A58000
A58000
A58000
A5FFFC
A58000
A5FFFC
A58000
A58000
A5FFFC
ENDCHAR
STARTCHAR Igrave
ENCODING 204
SWIDTH 338 0
DWIDTH 12 0
BBX 17 41 -6 0
BITMAP
380000
0E0000
E38000
38E000
0E3800
038E00
00E200
003800
000000
000000
000000
000000
00A580
00A580
00A580
00A580
00A580
00A580
00A580
00A580
00A580
00A580
00A580
00A580
00A580
00A580
00A580
00A580
00A580
00A580
00A580
00A580
00A580
00A580
00A580
00A580
00A580
00A580
00A580
00A580
00A580
ENDCHAR
STARTCHAR Iacute
ENCODING 205
SWIDTH 338 0
DWIDTH 12 0
BBX 16 41 2 0
BITMAP
000C
0030
01C7
071C
1C70
71C0
2700
1C00
0000
0000
0000
0000
A580
A580
A580
A580
A580
A580
A580
A580
A580
A580
A580
A580
A580
A580
A580
A580
A580
A580
A580
A580
A580
A580
A580
A580
A580
A580
A580
A580
A580
ENDCHAR
STARTCHAR Icircumflex
ENCODING 206
SWIDTH 338 0
DWIDTH 12 0
BBX 11 41 1 0
BITMAP
1A00
1B00
2900
2D00
6580
5480
5EC0
D240
B360
0000
0000
0000
52C0
52C0
52C0
52C0
52C0
52C0
52C0
52C0
52C0
52C0
52C0
52C0
52C0
52C0
52C0
52C0
52C0
52C0
52C0
52C0
52C0
52C0
52C0
52C0
52C0
52C0
52C0
52C0
52C0
ENDCHAR
STARTCHAR Idieresis
ENCODING 207
SWIDTH 338 0
DWIDTH 12 0
BBX 18 37 -3 0
BITMAP
D21AC0
D21AC0
D21AC0
D21AC0
000000
000000
000000
000000
052C00
052C00
052C00
052C00
052C00
052C00
052C00
052C00
052C00
052C00
052C00
052C00
052C00
052C00
052C00
052C00
052C00
052C00
052C00
052C00
052C00
052C00
052C00
052C00
052C00
052C00
052C00
052C00
052C00
ENDCHAR
STARTCHAR Eth
ENCODING 208
SWIDTH 905 0
DWIDTH 33 0
BBX 30 29 1 0
BITMAP
7FFFF800
60000E00
6FFFE380
6FFFFCC0
68000660
6BFFF330
6B001C90
6B7FC6D8
6B7FF248
6B40196C
6B400D24
FFF805A4
FFF804B4
000006B4
FFF806B4
000006B4
FFF804B4
FFF805A4
6B400D24
6B40196C
6B7FF248
6B0006D8
6B001D90
6BFFF330
68000660
6FFFF8C0
60000380
60000E00
7FFFF800
ENDCHAR
STARTCHAR Ntilde
ENCODING 209
SWIDTH 877 0
DWIDTH 32 0
BBX 28 39 2 0
BITMAP
00FFC580
07FFC500
0C000D00
19FFF900
1B000300
127FFE00
127FF800
00000000
00000000
00000000
D2401290
C9201290
EDB01290
A4901290
B6D81290
9B6C1290
A9241290
ADB61290
A4921290
A25B1290
AB6D9290
A5249290
A5B6D290
A4925290
A5492A90
A56DB290
A5A49290
A5B6DA90
A59B6A90
A5892490
A58DB690
A5849290
A582DB50
A5836D90
A5812490
A581B6D0
A5809250
A5804970
A5806DB0
ENDCHAR
STARTCHAR Ograve
ENCODING 210
SWIDTH 933 0
DWIDTH 34 0
BBX 32 42 1 -1
BITMAP
03000000
01C00000
0E700000
038C0000
00E30000
0038E000
000E4000
00038000
00000000
00000000
00000000
001FF800
00F00E00
0187E380
063E7CC0
0CE00660
198FF1B0
13381CD8
3663C648
2C9FF324
693019B4
5B600496
D24002DA
D6C0025A
9680034A
9480016B
9480016B
9480016B
9680034A
D6C0025A
5A4006D2
5B600496
693019B4
248FF324
3663C648
13381CD8
098FF330
0CE00660
033FF8C0
0183C380
00700E00
001FF800
ENDCHAR
STARTCHAR Oacute
ENCODING 211
SWIDTH 933 0
DWIDTH 34 0
BBX 32 42 1 -1
BITMAP
000001C0
00000700
00001C70
000071C0
0001C700
00071C00
00047000
0001C000
00000000
00000000
00000000
001FF800
00F00E00
0187E380
063E7CC0
0CE00660
198FF1B0
13381CD8
3663C648
2C9FF324
693019B4
5B600496
D24002DA
D6C0025A
9680034A
9480016B
9480016B
9480016B
9680034A
D6C0025A
5A4006D2
5B600496
693019B4
248FF324
3663C648
13381CD8
098FF330
0CE00660
033FF8C0
0183C380
00700E00
001FF800
ENDCHAR
STARTCHAR Ocircumflex
ENCODING 212
SWIDTH 933 0
DWIDTH 34 0
BBX 32 42 1 -1
BITMAP
0002C000
00074000
00056000
000D2000
0009B000
000A9000
001AD000
00125800
00366800
00000000
00000000
001FF800
00F00E00
0187E380
063E7CC0
0CE00660
198FF1B0
13381CD8
3663C648
2C9FF324
693019B4
5B600496
D24002DA
D6C0025A
9680034A
9480016B
9480016B
9480016B
9680034A
D6C0025A
5A4006D2
5B600496
693019B4
248FF324
3663C648
13381CD8
098FF330
0CE00660
033FF8C0
0183C380
00700E00
001FF800
ENDCHAR
STARTCHAR Otilde
ENCODING 213
SWIDTH 933 0
DWIDTH 34 0
BBX 32 40 1 -1
BITMAP
003FF160
01FFF160
03000340
027FFE40
06C000C0
049FFF80
049FFE00
00000000
00000000
001FF800
00F00E00
0187E380
063E7CC0
0CE00660
198FF1B0
13381CD8
3663C648
2C9FF324
693019B4
5B600496
D24002DA
D6C0025A
9680034A
9480016B
9480016B
9480016B
9680034A
D6C0025A
5A4006D2
5B600496
693019B4
248FF324
3663C648
13381CD8
098FF330
0CE00660
033FF8C0
0183C380
00700E00
001FF800
ENDCHAR
STARTCHAR Odieresis
ENCODING 214
SWIDTH 933 0
DWIDTH 34 0
BBX 32 38 1 -1
BITMAP
012C2500
012C2500
012C2500
012C2500
00000000
00000000
00000000
001FF800
00F00E00
0187E380
063E7CC0
0CE00660
198FF1B0
13381CD8
3663C648
2C9FF324
693019B4
5B600496
D24002DA
D6C0025A
9680034A
9480016B
9480016B
9480016B
9680034A
D6C0025A
5A4006D2
5B600496
693019B4
248FF324
3663C648
13381CD8
098FF330
0CE00660
033FF8C0
0183C380
00700E00
001FF800
ENDCHAR
STARTCHAR multiply
ENCODING 215
SWIDTH 790 0
DWIDTH 28 0
BBX 27 25 1 0
BITMAP
DB61BB60
4DB124C0
64936D80
36DEC900
12649B00
192DB600
0DB92400
04D36C00
06B6C800
03249800
016DB000
01D92000
00926000
01B6D000
03649000
024DD800
06DB4800
0C926C00
09B73600
1B659200
124EDB00
26DA4980
6D936C80
493136C0
DB609B60
ENDCHAR
STARTCHAR Oslash
ENCODING 216
SWIDTH 938 0
DWIDTH 34 0
BBX 32 40 1 -6
BITMAP
00000300
000002C0
00000490
00000DB0
001FF920
00F00E60
0187E3A0
063E7CC0
0CE00660
198FF1B0
13381CD8
36E3C648
2C9FF324
693019B4
5B600496
D24002D2
D680025A
9480034A
9480014B
B480016B
9480016B
9680034A
D6C0025A
D24006D2
5B600496
693019B4
2C8FF32C
3663C648
13381C98
098FF330
0CE00E60
033FF8C0
0583C380
04700E00
0D9FF800
09200000
1B400000
06400000
02800000
00800000
ENDCHAR
STARTCHAR Ugrave
ENCODING 217
SWIDTH 905 0
DWIDTH 33 0
BBX 30 42 1 -1
BITMAP
03000000
01C00000
1C700000
071C0000
01C70000
0071C000
001C4000
00070000
00000000
00000000
00000000
00000000
D28004A4
D28004A4
D28004A4
D28004A4
D28004A4
D28004A4
D28004A4
D28004A4
D28004A4
D28004A4
D28004A4
D28004A4
D28004A4
D28004A4
D28004A4
D28004A4
D28004A4
D28004A4
5AC005AC
5B60092C
69301B68
2D9FE658
26C30C90
137039B0
199FE360
0CE00EC0
063FF980
0387C300
00F01C00
003FF000
ENDCHAR
STARTCHAR Uacute
ENCODING 218
SWIDTH 905 0
DWIDTH 33 0
BBX 30 42 1 -1
BITMAP
00000180
00000700
00001CE0
00006380
00018E00
000E3800
0004E000
00038000
00000000
00000000
00000000
00000000
D28004A4
D28004A4
D28004A4
D28004A4
D28004A4
D28004A4
D28004A4
D28004A4
D28004A4
D28004A4
D28004A4
D28004A4
D28004A4
D28004A4
D28004A4
D28004A4
D28004A4
D28004A4
5AC005AC
5B60092C
69301B68
2D9FE658
26C30C90
137039B0
199FE360
0CE00EC0
063FF980
0387C300
00F01C00
003FF000
ENDCHAR
STARTCHAR Ucircumflex
ENCODING 219
SWIDTH 905 0
DWIDTH 33 0
BBX 30 42 1 -1
BITMAP
00068000
0006C000
000E4000
000B6000
00092000
0013A000
0016B000
00349000
002CD800
00000000
00000000
00000000
D28004A4
D28004A4
D28004A4
D28004A4
D28004A4
D28004A4
D28004A4
D28004A4
D28004A4
D28004A4
D28004A4
D28004A4
D28004A4
D28004A4
D28004A4
D28004A4
D28004A4
D28004A4
5AC005AC
5B60092C
69301B68
2D9FE658
26C30C90
137039B0
199FE360
0CE00EC0
063FF980
0387C300
00F01C00
003FF000
ENDCHAR
STARTCHAR Udieresis
ENCODING 220
SWIDTH 905 0
DWIDTH 33 0
BBX 30 38 1 -1
BITMAP
01486B00
01486B00
01486B00
01486B00
00000000
00000000
00000000
00000000
D28004A4
D28004A4
D28004A4
D28004A4
D28004A4
D28004A4
D28004A4
D28004A4
D28004A4
D28004A4
D28004A4
D28004A4
D28004A4
D28004A4
D28004A4
D28004A4
D28004A4
D28004A4
5AC005AC
5B60092C
69301B68
2D9FE658
26C30C90
137039B0
199FE360
0CE00EC0
063FF980
0387C300
00F01C00
003FF000
ENDCHAR
STARTCHAR Yacute
ENCODING 221
SWIDTH 789 0
DWIDTH 28 0
BBX 27 41 1 0
BITMAP
00000600
00001C00
00007380
00018E00
00063800
0038E000
00138000
000E0000
00000000
00000000
00000000
00000000
B5802D60
D6804B40
5AC05AC0
6B409680
2D60B580
35A1AD00
16B16B00
12D35A00
0B5AD600
096EB400
05A5AC00
04BD6800
02AB4800
025A5000
01529000
0154A000
01A52000
00A94000
00CA4000
005AC000
005AC000
005AC000
005AC000
005AC000
005AC000
005AC000
005AC000
005AC000
005AC000
ENDCHAR
STARTCHAR Thorn
ENCODING 222
SWIDTH 798 0
DWIDTH 29 0
BBX 26 33 2 -3
BITMAP
A5800000
A5800000
A5800000
A5FF8000
A580E000
A5FC3800
A5FFCC00
A5806600
A5FF3200
A581D900
A5A86D80
A5FF2480
A581B680
A580D280
A58052C0
A58052C0
A580D2C0
A5809680
A581B680
A5FF2580
A580CD00
A5C79B00
A5FE3200
A580E600
A5FF8C00
A5803000
A583E000
A5FF0000
A5800000
A5800000
A5800000
A5800000
A5800000
ENDCHAR
STARTCHAR germandbls
ENCODING 223
SWIDTH 826 0
DWIDTH 30 0
BBX 27 33 2 -3
BITMAP
03FFF000
0E001800
18FFC600
33C0F300
6C001900
D9FFCC80
93007680
B67F92C0
A5C1DA40
A5804A40
A5004A40
A57FDAC0
A5001280
A5006480
A57FCD80
A5003280
A57F9A40
A500E940
A5002D60
A5002D60
A5006960
A57FCB40
A5001A40
A50076C0
A57FCC80
A5001980
A57FF300
A5000E00
A5007800
A57FE000
A5000000
A5000000
A5000000
ENDCHAR
STARTCHAR agrave
ENCODING 224
SWIDTH 832 0
DWIDTH 30 0
BBX 27 38 1 -1
BITMAP
0C000000
07000000
31C00000
1C700000
031C0000
00E78000
00390000
000E0000
00000000
00000000
00000000
003FC000
01E0F000
07041C00
0C7FE600
19C03300
331F8D80
2671E6C0
6D803240
493F9B60
5A60CD20
D6C025A0
968035A0
948014A0
B48014A0
948014A0
968014A0
D2C014A0
5A6054A0
493FD4A0
6DC014A0
3679D4A0
131F14A0
09E054A0
067FD4A0
038014A0
00FFD4A0
001F0000
ENDCHAR
STARTCHAR aacute
ENCODING 225
SWIDTH 832 0
DWIDTH 30 0
BBX 27 38 1 -1
BITMAP
00000600
00001C00
00007180
0001C700
00071C00
001C6000
00118000
00060000
00000000
00000000
00000000
003FC000
01E0F000
07041C00
0C7FE600
19C03300
331F8D80
2671E6C0
6D803240
493F9B60
5A60CD20
D6C025A0
968035A0
948014A0
B48014A0
948014A0
968014A0
D2C014A0
5A6054A0
493FD4A0
6DC014A0
3679D4A0
131F14A0
09E054A0
067FD4A0
038014A0
00FFD4A0
001F0000
ENDCHAR
STARTCHAR acircumflex
ENCODING 226
SWIDTH 832 0
DWIDTH 30 0
BBX 27 38 1 -1
BITMAP
001B0000
00190000
001D0000
00358000
00268000
006AC000
004A4000
005B4000
00D16000
00000000
00000000
003FC000
01E0F000
07041C00
0C7FE600
19C03300
331F8D80
2671E6C0
6D803240
493F9B60
5A60CD20
D6C025A0
968035A0
948014A0
B48014A0
948014A0
968014A0
D2C014A0
5A6054A0
493FD4A0
6DC014A0
3679D4A0
131F14A0
09E054A0
067FD4A0
038014A0
00FFD4A0
001F0000
ENDCHAR
STARTCHAR atilde
ENCODING 227
SWIDTH 832 0
DWIDTH 30 0
BBX 27 36 1 -1
BITMAP
01FFCD00
07FFCD00
08000900
19FFF900
13000200
167FFE00
167FF800
00000000
00000000
003FC000
01E0F000
07041C00
0C7FE600
19C03300
331F8D80
2671E6C0
6D803240
493F9B60
5A60CD20
D6C025A0
968035A0
948014A0
B48014A0
948014A0
968014A0
D2C014A0
5A6054A0
493FD4A0
6DC014A0
3679D4A0
131F14A0
09E054A0
067FD4A0
038014A0
00FFD4A0
001F0000
ENDCHAR
STARTCHAR adieresis
ENCODING 228
SWIDTH 832 0
DWIDTH 30 0
BBX 27 34 1 -1
BITMAP
05A0B400
05A0B400
05A0B400
05A0B400
00000000
00000000
00000000
003FC000
01E0F000
07041C00
0C7FE600
19C03300
331F8D80
2671E6C0
6D803240
493F9B60
5A60CD20
D6C025A0
968035A0
948014A0
B48014A0
948014A0
968014A0
D2C014A0
5A6054A0
493FD4A0
6DC014A0
3679D4A0
131F14A0
09E054A0
067FD4A0
038014A0
00FFD4A0
001F0000
ENDCHAR
STARTCHAR aring
ENCODING 229
SWIDTH 832 0
DWIDTH 30 0
BBX 27 39 1 -1
BITMAP
001F0000
00208000
006F4000
00514000
0051C000
00514000
006F4000
00308000
001F0000
00000000
00000000
00000000
003FC000
01E0F000
07041C00
0C7FE600
19C03300
331F8D80
2671E6C0
6D803240
493F9B60
5A60CD20
D6C025A0
968035A0
948014A0
B48014A0
948014A0
968014A0
D2C014A0
5A6054A0
493FD4A0
6DC014A0
3679D4A0
131F14A0
09E054A0
067FD4A0
038014A0
00FFD4A0
001F0000
ENDCHAR
STARTCHAR ae
ENCODING 230
SWIDTH 1166 0
DWIDTH 42 0
BBX 40 27 1 -1
BITMAP
003FC00000
01E0F4BFFF
07041CA000
0C7FE6BFFF
19C0332000
331F8DA000
2671E6FFFF
6D80326000
493F9B6000
5A60CD2000
D6C025BFFE
968035A000
948014A000
B48014BFFE
948014A000
968014BFFE
D2C014A000
5A6054A000
493FD4A000
6DC014A000
3679D4BFFF
131F14A000
09E054BFFF
067FD4A000
038014A000
00FFD4BFFF
001F000000
ENDCHAR
STARTCHAR ccedilla
ENCODING 231
SWIDTH 736 0
DWIDTH 27 0
BBX 25 40 1 -13
BITMAP
000E0000
007FE000
01803800
063F8E00
0CF0F300
19861980
323FCC00
24E07600
6D9F1800
4B39D000
DA606000
D6C00000
94800000
94800000
B4800000
94800000
96800000
D2C04000
5B606000
493FD800
6D863000
2660E600
133F8D00
19C03980
0C7FE600
031F0C00
01C07800
007FE000
00090000
00390000
00610000
00870000
009F0000
00B00000
00A00000
00B00000
009F0000
00C00000
007F0000
00070000
ENDCHAR
STARTCHAR egrave
ENCODING 232
SWIDTH 666 0
DWIDTH 24 0
BBX 23 37 0 0
BITMAP
380000
0E0000
E38000
38E000
0E3800
038E00
00E200
003800
000000
000000
000000
000000
297FFE
296000
297FFE
296000
296000
297FFE
296000
296000
296000
297FFC
296000
296000
297FFC
296000
297FFC
296000
296000
296000
296000
297FFE
296000
297FFE
296000
296000
297FFE
ENDCHAR
STARTCHAR eacute
ENCODING 233
SWIDTH 666 0
DWIDTH 24 0
BBX 22 37 2 0
BITMAP
000030
0000C0
00031C
001C70
0071C0
01C700
009C00
007000
000000
000000
000000
000000
A5FFF8
A58000
A5FFF8
A58000
A58000
A5FFF8
A58000
A58000
A58000
A5FFF0
A58000
A58000
A5FFF0
A58000
A5FFF0
A58000
A58000
A58000
A58000
A5FFF8
A58000
A5FFF8
A58000
A58000
A5FFF8
ENDCHAR
STARTCHAR ecircumflex
ENCODING 234
SWIDTH 666 0
DWIDTH 24 0
BBX 21 37 2 0
BITMAP
00D000
00D800
01C800
016800
032C00
02B400
02D600
069200
059B00
000000
000000
000000
A5FFF8
A58000
A5FFF8
A58000
A58000
A5FFF8
A58000
A58000
A58000
A5FFF0
A58000
A58000
A5FFF0
A58000
A5FFF0
A58000
A58000
A58000
A58000
A5FFF8
A58000
A5FFF8
A58000
A58000
A5FFF8
ENDCHAR
STARTCHAR edieresis
ENCODING 235
SWIDTH 666 0
DWIDTH 24 0
BBX 21 33 2 0
BITMAP
290D60
290D60
290D60
290D60
000000
000000
000000
000000
A5FFF8
A58000
A5FFF8
A58000
A58000
A5FFF8
A58000
A58000
A58000
A5FFF0
A58000
A58000
A5FFF0
A58000
A5FFF0
A58000
A58000
A58000
A58000
A5FFF8
A58000
A5FFF8
A58000
A58000
A5FFF8
ENDCHAR
STARTCHAR igrave
ENCODING 236
SWIDTH 337 0
DWIDTH 12 0
BBX 17 37 -6 0
BITMAP
380000
0E0000
E38000
38E000
0E3800
038E00
00E200
003800
000000
000000
000000
000000
00A580
00A580
00A580
00A580
00A580
00A580
00A580
00A580
00A580
00A580
00A580
00A580
00A580
00A580
00A580
00A580
00A580
00A580
00A580
00A580
00A580
00A580
00A580
00A580
00A580
ENDCHAR
STARTCHAR iacute
ENCODING 237
SWIDTH 337 0
DWIDTH 12 0
BBX 16 37 2 0
BITMAP
000C
0030
01C7
071C
1C70
71C0
2700
1C00
0000
0000
0000
0000
A580
A580
A580
A580
A580
A580
A580
A580
A580
A580
A580
A580
A580
A580
A580
A580
A580
A580
A580
A580
A580
A580
A580
A580
A580
ENDCHAR
STARTCHAR icircumflex
ENCODING 238
SWIDTH 337 0
DWIDTH 12 0
BBX 11 37 1 0
BITMAP
1A00
1B00
2900
2D00
6580
5480
5EC0
D240
B360
0000
0000
0000
52C0
52C0
52C0
52C0
52C0
52C0
52C0
52C0
52C0
52C0
52C0
52C0
52C0
52C0
52C0
52C0
52C0
52C0
52C0
52C0
52C0
52C0
52C0
52C0
52C0
ENDCHAR
STARTCHAR idieresis
ENCODING 239
SWIDTH 337 0
DWIDTH 12 0
BBX 18 33 -3 0
BITMAP
D21AC0
D21AC0
D21AC0
D21AC0
000000
000000
000000
000000
052C00
052C00
052C00
052C00
052C00
052C00
052C00
052C00
052C00
052C00
052C00
052C00
052C00
052C00
052C00
052C00
052C00
052C00
052C00
052C00
052C00
052C00
052C00
052C00
052C00
ENDCHAR
STARTCHAR eth
ENCODING 240
SWIDTH 783 0
DWIDTH 28 0
BBX 26 31 1 -1
BITMAP
01FFC000
07007000
187E1800
33E3C600
0E007200
08FF9900
0380CD80
003E2480
00F7B680
0000D2C0
00005AC0
00005A40
03FF5A40
0E005A40
18FE5A40
33C75A40
64005A40
49FF5A40
D3005A40
967F5A40
B4805AC0
B580D2C0
94FF9680
923C2480
D981CD80
4CFF1900
26007200
31FFC600
0C3E1800
0780F000
01FF8000
ENDCHAR
STARTCHAR ntilde
ENCODING 241
SWIDTH 787 0
DWIDTH 28 0
BBX 25 35 2 0
BITMAP
03FF9200
1FFF9200
30003600
27FFE400
2C000C00
68FFF800
68FFE000
00000000
00000000
00000000
DB603580
C9203580
EDB03580
A4903580
B6D83580
BA483580
A9243580
ADB63580
A4923580
A6DB3580
AA493580
A76DB580
A5B6B580
A4925580
A4DB7580
A4492580
A46DB580
A4249580
A416DD80
A41B6980
A4092580
A40DB780
A4049380
A406DB80
A4036D80
ENDCHAR
STARTCHAR ograve
ENCODING 242
SWIDTH 833 0
DWIDTH 30 0
BBX 28 38 1 -1
BITMAP
0C000000
03000000
38C00000
0E380000
038E0000
00E38000
00390000
000E0000
00000000
00000000
000E0000
007FE000
01803800
063F8E00
0CF0F300
19841980
323FCC80
24E07640
6D9F1B60
4B39C920
DA606DA0
D6C034B0
948016B0
94801690
B4801690
948016B0
968036B0
D2C025A0
5B606D20
493FD960
6D873240
2660E6C0
133F8C80
19C03900
0C7FE600
031F0C00
01C07800
007FC000
ENDCHAR
STARTCHAR oacute
ENCODING 243
SWIDTH 833 0
DWIDTH 30 0
BBX 28 38 1 -1
BITMAP
00000700
00001C00
000071C0
0001C700
00071C00
001C7000
0011C000
00070000
00000000
00000000
000E0000
007FE000
01803800
063F8E00
0CF0F300
19841980
323FCC80
24E07640
6D9F1B60
4B39C920
DA606DA0
D6C034B0
948016B0
94801690
B4801690
948016B0
968036B0
D2C025A0
5B606D20
493FD960
6D873240
2660E6C0
133F8C80
19C03900
0C7FE600
031F0C00
01C07800
007FC000
ENDCHAR
STARTCHAR ocircumflex
ENCODING 244
SWIDTH 833 0
DWIDTH 30 0
BBX 28 38 1 -1
BITMAP
00090000
001D0000
00158000
00168000
0032C000
002A4000
006B4000
00496000
00D9A000
00000000
000E0000
007FE000
01803800
063F8E00
0CF0F300
19841980
323FCC80
24E07640
6D9F1B60
4B39C920
DA606DA0
D6C034B0
948016B0
94801690
B4801690
948016B0
968036B0
D2C025A0
5B606D20
493FD960
6D873240
2660E6C0
133F8C80
19C03900
0C7FE600
031F0C00
01C07800
007FC000
ENDCHAR
STARTCHAR otilde
ENCODING 245
SWIDTH 833 0
DWIDTH 30 0
BBX 28 36 1 -1
BITMAP
00FFC580
07FFC580
0C000D00
09FFF900
1B000300
127FFE00
127FF800
00000000
000E0000
007FE000
01803800
063F8E00
0CF0F300
19841980
323FCC80
24E07640
6D9F1B60
4B39C920
DA606DA0
D6C034B0
948016B0
94801690
B4801690
948016B0
968036B0
D2C025A0
5B606D20
493FD960
6D873240
2660E6C0
133F8C80
19C03900
0C7FE600
031F0C00
01C07800
007FC000
ENDCHAR
STARTCHAR odieresis
ENCODING 246
SWIDTH 833 0
DWIDTH 30 0
BBX 28 34 1 -1
BITMAP
06B09400
06B09400
06B09400
06B09400
00000000
00000000
000E0000
007FE000
01803800
063F8E00
0CF0F300
19841980
323FCC80
24E07640
6D9F1B60
4B39C920
DA606DA0
D6C034B0
948016B0
94801690
B4801690
948016B0
968036B0
D2C025A0
5B606D20
493FD960
6D873240
2660E6C0
133F8C80
19C03900
0C7FE600
031F0C00
01C07800
007FC000
ENDCHAR
STARTCHAR divide
ENCODING 247
SWIDTH 260 0
DWIDTH 9 0
BBX 11 20 -1 2
BITMAP
1480
1480
1480
1480
1480
1480
0000
0000
FFE0
0000
0000
FFE0
0000
0000
1480
1480
1480
1480
1480
1480
ENDCHAR
STARTCHAR oslash
ENCODING 248
SWIDTH 832 0
DWIDTH 30 0
BBX 28 33 1 -4
BITMAP
00001800
00001200
000E3680
007FE580
01803900
063F8F00
0CF0F300
19861980
323FCC80
24E066C0
6D9F1B40
4B39C920
DA606DA0
D6C034A0
948016B0
B48016B0
B4801690
948016B0
968034B0
D2C025A0
5B606D20
493FD960
6D863240
2660E6C0
133F8C80
19C03900
0C7FE600
0B1F0C00
19C07800
127FC000
04800000
01800000
00800000
ENDCHAR
STARTCHAR ugrave
ENCODING 249
SWIDTH 795 0
DWIDTH 29 0
BBX 26 38 1 -1
BITMAP
0C000000
07000000
31C00000
1C700000
071C0000
01C70000
00710000
001C0000
00000000
00000000
00000000
00000000
D6806B40
D6806B40
D6806B40
D6806B40
D6806B40
D6806B40
D6806B40
D6806B40
D6806B40
D6806B40
D6806B40
D6806B40
D6806B40
D6806B40
D2804B40
52C04A40
5A60DAC0
4B3FB6C0
6D8C6480
24E0CD80
333F9900
19807200
0CFFC400
071E1800
01C07000
007FC000
ENDCHAR
STARTCHAR uacute
ENCODING 250
SWIDTH 795 0
DWIDTH 29 0
BBX 26 38 1 -1
BITMAP
00000600
00001C00
00007380
0001CE00
00063800
0038E000
00138000
000E0000
00000000
00000000
00000000
00000000
D6806B40
D6806B40
D6806B40
D6806B40
D6806B40
D6806B40
D6806B40
D6806B40
D6806B40
D6806B40
D6806B40
D6806B40
D6806B40
D6806B40
D2804B40
52C04A40
5A60DAC0
4B3FB6C0
6D8C6480
24E0CD80
333F9900
19807200
0CFFC400
071E1800
01C07000
007FC000
ENDCHAR
STARTCHAR ucircumflex
ENCODING 251
SWIDTH 795 0
DWIDTH 29 0
BBX 26 38 1 -1
BITMAP
001A0000
001B0000
003D0000
002D8000
00248000
006E8000
005AC000
00D24000
00936000
00000000
00000000
00000000
D6806B40
D6806B40
D6806B40
D6806B40
D6806B40
D6806B40
D6806B40
D6806B40
D6806B40
D6806B40
D6806B40
D6806B40
D6806B40
D6806B40
D2804B40
52C04A40
5A60DAC0
4B3FB6C0
6D8C6480
24E0CD80
333F9900
19807200
0CFFC400
071E1800
01C07000
007FC000
ENDCHAR
STARTCHAR udieresis
ENCODING 252
SWIDTH 795 0
DWIDTH 29 0
BBX 26 34 1 -1
BITMAP
0521A400
0521A400
0521A400
0521A400
00000000
00000000
00000000
00000000
D6806B40
D6806B40
D6806B40
D6806B40
D6806B40
D6806B40
D6806B40
D6806B40
D6806B40
D6806B40
D6806B40
D6806B40
D6806B40
D6806B40
D2804B40
52C04A40
5A60DAC0
4B3FB6C0
6D8C6480
24E0CD80
333F9900
19807200
0CFFC400
071E1800
01C07000
007FC000
ENDCHAR
STARTCHAR yacute
ENCODING 253
SWIDTH 733 0
DWIDTH 26 0
BBX 25 37 1 0
BITMAP
00000C00
00003800
0000E700
00031C00
000C7000
0071C000
00270000
001C0000
00000000
00000000
00000000
01000000
B480B580
D2C12900
4A414B00
69625A00
25A2D600
34B6B400
12D5AC00
0A4D6800
096B5800
05BAD000
0496B000
02F5A000
02AD2000
016B4000
015A4000
00D28000
00948000
00948000
00948000
00948000
00948000
00948000
00948000
00948000
00948000
ENDCHAR
STARTCHAR thorn
ENCODING 254
SWIDTH 833 0
DWIDTH 30 0
BBX 27 33 2 -4
BITMAP
A5800000
A5800000
A5800000
A5800000
A5800000
A5800000
A5800000
A5800000
A5FFF800
A5800E00
A5FFE300
A5803980
A5800CC0
A5FFF240
A5801B40
A5FFC960
A5806D60
A5802D20
A5FFED60
A5FFC960
A5803340
A5FFE6C0
A5800C80
A5FFF980
A5FFC300
A5801C00
A5FFF000
A5800000
A5800000
A5800000
A5800000
A5800000
A5800000
ENDCHAR
STARTCHAR ydieresis
ENCODING 255
SWIDTH 733 0
DWIDTH 26 0
BBX 25 33 1 0
BITMAP
0A435800
0A435800
0A435800
0A435800
00000000
00000000
00000000
01000000
B480B580
D2C12900
4A414B00
69625A00
25A2D600
34B6B400
12D5AC00
0A4D6800
096B5800
05BAD000
0496B000
02F5A000
02AD2000
016B4000
015A4000
00D28000
00948000
00948000
00948000
00948000
00948000
00948000
00948000
00948000
00948000
ENDCHAR
STARTCHAR Amacron
ENCODING 256
SWIDTH 936 0
DWIDTH 34 0
BBX 32 29 1 0
BITMAP
001A5800
003B6800
002D2C00
0025A400
0064B400
00569600
00DAD200
00924B00
00B56900
01A52D00
012DA580
036AB480
024A92C0
02DADA40
06964B40
04B46960
05A42D20
0D2C24B0
0B683690
1A5BD2D0
12D43A58
16900B48
34BFF96C
2DA00DA4
692FF4B4
4B7FFE96
5A4002D2
D2C0025B
B6800369
ENDCHAR
STARTCHAR amacron
ENCODING 257
SWIDTH 832 0
DWIDTH 30 0
BBX 27 27 1 -1
BITMAP
003FC000
01E0F000
07041C00
0C7FE600
19C03300
331F8D80
2671E6C0
6D803240
493F9B60
5A60CD20
D6C025A0
968035A0
948014A0
B48014A0
948014A0
968014A0
D2C014A0
5A6054A0
493FD4A0
6DC014A0
3679D4A0
131F14A0
09E054A0
067FD4A0
038014A0
00FFD4A0
001F0000
ENDCHAR
STARTCHAR Abreve
ENCODING 258
SWIDTH 936 0
DWIDTH 34 0
BBX 32 37 1 0
BITMAP
001C2800
00146800
0013D800
000C3000
0003C000
00000000
00000000
00000000
001A5800
003B6800
002D2C00
0025A400
0064B400
00569600
00DAD200
00924B00
00B56900
01A52D00
012DA580
036AB480
024A92C0
02DADA40
06964B40
04B46960
05A42D20
0D2C24B0
0B683690
1A5BD2D0
12D43A58
16900B48
34BFF96C
2DA00DA4
692FF4B4
4B7FFE96
5A4002D2
D2C0025B
B6800369
ENDCHAR
STARTCHAR abreve
ENCODING 259
SWIDTH 832 0
DWIDTH 30 0
BBX 27 34 1 -1
BITMAP
00A0A000
00B1A000
004E4000
00318000
000F0000
00000000
00000000
003FC000
01E0F000
07041C00
0C7FE600
19C03300
331F8D80
2671E6C0
6D803240
493F9B60
5A60CD20
D6C025A0
968035A0
948014A0
B48014A0
948014A0
968014A0
D2C014A0
5A6054A0
493FD4A0
6DC014A0
3679D4A0
131F14A0
09E054A0
067FD4A0
038014A0
00FFD4A0
001F0000
ENDCHAR
STARTCHAR Aogonek
ENCODING 260
SWIDTH 937 0
DWIDTH 34 0
BBX 32 40 1 -11
BITMAP
001B4800
00196C00
003D2400
0025B400
00269600
006AD200
005A5A00
00D34900
00956D00
00B5A580
01A4B480
016E9680
034AD2C0
025B5B40
02D24960
06962D20
05B425A0
0D2434B0
096C1690
0B4BD258
1A5C3B48
12D00968
349FFD2C
25B005A4
2D2FF496
697FFED2
4B40025A
DA40034B
96C0016D
000F0000
00180000
00330000
00270000
002C0000
00280000
00290000
00290000
00290000
00290000
00290000
ENDCHAR
STARTCHAR aogonek
ENCODING 261
SWIDTH 832 0
DWIDTH 30 0
BBX 27 38 1 -12
BITMAP
003FC000
01E0F000
07041C00
0C7FE600
19C03300
331F8D80
2671E6C0
6D803240
493F9B60
5A60CD20
D6C025A0
968035A0
948014A0
B48014A0
948014A0
968014A0
D2C014A0
5A6054A0
493FD4A0
6DC014A0
3679D4A0
131F14A0
09E054A0
067FD4A0
038014A0
00FFD4A0
001F0000
003C0000
00E00000
008C0000
01BC0000
01A00000
01A00000
01AC0000
01AC0000
01AC0000
01AC0000
01AC0000
ENDCHAR
STARTCHAR Cacute
ENCODING 262
SWIDTH 852 0
DWIDTH 31 0
BBX 29 42 1 -1
BITMAP
000001C0
00000700
00001C70
000071C0
0001C700
00071C00
00047000
0001C000
00000000
00000000
00000000
001FF800
00F00E00
0187E380
063EFCC0
0CE00660
198FF1B0
13381CD8
3663C660
2C9FF340
69301980
5B600600
D2400400
D6C00000
96800000
94800000
94800000
94800000
96800000
D6C00000
5A400400
5B600600
69301980
248FF340
3663C660
13381CD8
098FF330
0CE00660
033FF8C0
0183C380
00700E00
001FF800
ENDCHAR
STARTCHAR cacute
ENCODING 263
SWIDTH 736 0
DWIDTH 27 0
BBX 26 38 1 -1
BITMAP
00000700
00001C00
000071C0
0001C700
00071C00
001C7000
0011C000
00070000
00000000
00000000
000E0000
007FE000
01803800
063F8E00
0CF0F300
19861980
323FCC00
24E07600
6D9F1800
4B39D000
DA606000
D6C00000
94800000
94800000
B4800000
94800000
96800000
D2C04000
5B606000
493FD800
6D863000
2660E600
133F8D00
19C03980
0C7FE600
031F0C00
01C07800
007FE000
ENDCHAR
STARTCHAR Cdotaccent
ENCODING 266
SWIDTH 852 0
DWIDTH 31 0
BBX 29 39 1 -1
BITMAP
0007E000
00000000
0007E000
0007E000
00000000
0007E000
00000000
00000000
001FF800
00F00E00
0187E380
063EFCC0
0CE00660
198FF1B0
13381CD8
3663C660
2C9FF340
69301980
5B600600
D2400400
D6C00000
96800000
94800000
94800000
94800000
96800000
D6C00000
5A400400
5B600600
69301980
248FF340
3663C660
13381CD8
098FF330
0CE00660
033FF8C0
0183C380
00700E00
001FF800
ENDCHAR
STARTCHAR cdotaccent
ENCODING 267
SWIDTH 736 0
DWIDTH 27 0
BBX 25 36 1 -1
BITMAP
001F8000
00000000
001F8000
001F8000
00000000
001F8000
00000000
00000000
000E0000
007FE000
01803800
063F8E00
0CF0F300
19861980
323FCC00
24E07600
6D9F1800
4B39D000
DA606000
D6C00000
94800000
94800000
B4800000
94800000
96800000
D2C04000
5B606000
493FD800
6D863000
2660E600
133F8D00
19C03980
0C7FE600
031F0C00
01C07800
007FE000
ENDCHAR
STARTCHAR Ccaron
ENCODING 268
SWIDTH 852 0
DWIDTH 31 0
BBX 29 42 1 -1
BITMAP
00366800
00125800
001AD000
000A9000
0008B000
000DA000
00056000
00074000
0002C000
00000000
00000000
001FF800
00F00E00
0187E380
063EFCC0
0CE00660
198FF1B0
13381CD8
3663C660
2C9FF340
69301980
5B600600
D2400400
D6C00000
96800000
94800000
94800000
94800000
96800000
D6C00000
5A400400
5B600600
69301980
248FF340
3663C660
13381CD8
098FF330
0CE00660
033FF8C0
0183C380
00700E00
001FF800
ENDCHAR
STARTCHAR ccaron
ENCODING 269
SWIDTH 736 0
DWIDTH 27 0
BBX 25 38 1 -1
BITMAP
00D9A000
00492000
006B4000
002A4000
0022C000
00368000
00148000
001D8000
00090000
00000000
000E0000
007FE000
01803800
063F8E00
0CF0F300
19861980
323FCC00
24E07600
6D9F1800
4B39D000
DA606000
D6C00000
94800000
94800000
B4800000
94800000
96800000
D2C04000
5B606000
493FD800
6D863000
2660E600
133F8D00
19C03980
0C7FE600
031F0C00
01C07800
007FE000
ENDCHAR
STARTCHAR Dcaron
ENCODING 270
SWIDTH 886 0
DWIDTH 32 0
BBX 29 41 2 0
BITMAP
0059B000
00692000
002D6000
00274000
00324000
0012C000
001E8000
000D8000
000D0000
00000000
00000000
00000000
FFFFF000
80003C00
BFFF0600
BFFFF300
A0001D80
A7FFC6C0
A4007360
A5FF1920
A5FFEDB0
A5802490
A58016D0
A5801250
A5801A58
A5800B58
A5800B58
A5800B58
A5801A58
A58012D0
A58036D0
A5802490
A5FFCDB0
A4001920
A4007360
A7FFC6C0
A0001980
BFFFF300
80000600
80003C00
FFFFE000
ENDCHAR
STARTCHAR dcaron
ENCODING 271
SWIDTH 1084 0
DWIDTH 39 0
BBX 36 26 2 0
BITMAP
0000000690
FFFFE00690
8000380690
BFFF8C0690
A003E60690
A0003B0090
A7FF8D80B0
A400648730
A5FE36C420
A5FF9A40C0
A5804B4780
A580696000
A5802D6000
A5802D6000
A5802D6000
A580696000
A580CB4000
A5FF924000
A40036C000
A401EC8000
A7FF998000
A000330000
BFFFC60000
80001C0000
8000F00000
FFFFC00000
ENDCHAR
STARTCHAR Dcroat
ENCODING 272
SWIDTH 888 0
DWIDTH 32 0
BBX 33 29 -2 0
BITMAP
0FFFFF0000
080003C000
0BFFF06000
0BFFFF3000
0A0001D800
0A7FFC6C00
0A40073600
0A5FF19200
0A5FFEDB00
0A58024900
0A58016D00
EA5F812580
0A5801A580
0A5800B580
EA5F80B580
0A5800B580
EA5F81A580
EA5F812D00
0A58016D00
0A58024900
0A5FFCDB00
0A40019200
0A40072600
0A7FFC6C00
0A0001D800
0BFFFF3000
0800006000
0800038000
0FFFFE0000
ENDCHAR
STARTCHAR dcroat
ENCODING 273
SWIDTH 833 0
DWIDTH 30 0
BBX 31 25 -2 0
BITMAP
0FFFFE00
08000380
0BFFF8C0
0A003E60
0A0003B0
0A7FF8D8
0A400648
0A5FE36C
0A5FF9A4
0A580CB4
EA5F8696
EA5F82D6
0A5802D6
EA5F82D6
0A580696
0A580DB4
0A5FF924
0A40036C
0A401EC8
0A7FF998
0A000330
0BFFFE60
080001C0
08000F00
0FFFFC00
ENDCHAR
STARTCHAR Emacron
ENCODING 274
SWIDTH 706 0
DWIDTH 25 0
BBX 22 29 2 0
BITMAP
A5FFFC
A58000
A5FFFC
A5FFFC
A58000
A5FFFC
A58000
A58000
A58000
A58000
A58000
A5FE00
A5FE00
A58000
A5FE00
A58000
A5FE00
A5FE00
A58000
A58000
A58000
A58000
A58000
A5FFFC
A58000
A5FFFC
A58000
A58000
A5FFFC
ENDCHAR
STARTCHAR emacron
ENCODING 275
SWIDTH 666 0
DWIDTH 24 0
BBX 21 25 2 0
BITMAP
A5FFF8
A58000
A5FFF8
A58000
A58000
A5FFF8
A58000
A58000
A58000
A5FFF0
A58000
A58000
A5FFF0
A58000
A5FFF0
A58000
A58000
A58000
A58000
A5FFF8
A58000
A5FFF8
A58000
A58000
A5FFF8
ENDCHAR
STARTCHAR Ebreve
ENCODING 276
SWIDTH 706 0
DWIDTH 25 0
BBX 22 37 2 0
BITMAP
070500
028D00
027A00
018600
007800
000000
000000
000000
A5FFFC
A58000
A5FFFC
A5FFFC
A58000
A5FFFC
A58000
A58000
A58000
A58000
A58000
A5FE00
A5FE00
A58000
A5FE00
A58000
A5FE00
A5FE00
A58000
A58000
A58000
A58000
A58000
A5FFFC
A58000
A5FFFC
A58000
A58000
A5FFFC
ENDCHAR
STARTCHAR ebreve
ENCODING 277
SWIDTH 666 0
DWIDTH 24 0
BBX 21 33 2 0
BITMAP
050E00
058A00
06F200
030C00
00F000
000000
000000
000000
A5FFF8
A58000
A5FFF8
A58000
A58000
A5FFF8
A58000
A58000
A58000
A5FFF0
A58000
A58000
A5FFF0
A58000
A5FFF0
A58000
A58000
A58000
A58000
A5FFF8
A58000
A5FFF8
A58000
A58000
A5FFF8
ENDCHAR
STARTCHAR Edotaccent
ENCODING 278
SWIDTH 706 0
DWIDTH 25 0
BBX 22 38 2 0
BITMAP
00FC00
000000
00FC00
00FC00
000000
00FC00
000000
000000
000000
A5FFFC
A58000
A5FFFC
A5FFFC
A58000
A5FFFC
A58000
A58000
A58000
A58000
A58000
A5FE00
A5FE00
A58000
A5FE00
A58000
A5FE00
A5FE00
A58000
A58000
A58000
A58000
A58000
A5FFFC
A58000
A5FFFC
A58000
A58000
A5FFFC
ENDCHAR
STARTCHAR edotaccent
ENCODING 279
SWIDTH 666 0
DWIDTH 24 0
BBX 21 34 2 0
BITMAP
01F800
000000
01F800
01F800
000000
01F800
000000
000000
000000
A5FFF8
A58000
A5FFF8
A58000
A58000
A5FFF8
A58000
A58000
A58000
A5FFF0
A58000
A58000
A5FFF0
A58000
A5FFF0
A58000
A58000
A58000
A58000
A5FFF8
A58000
A5FFF8
A58000
A58000
A5FFF8
ENDCHAR
STARTCHAR Eogonek
ENCODING 280
SWIDTH 706 0
DWIDTH 25 0
BBX 22 39 2 -10
BITMAP
A5FFFC
A50000
A5FFFC
A5FFFC
A50000
A5FFFC
A50000
A50000
A50000
A50000
A50000
A5FE00
A5FE00
A50000
A5FE00
A50000
A5FE00
A5FE00
A50000
A50000
A50000
A50000
A50000
A5FFFC
A50000
A5FFFC
A50000
A50000
A5FFFC
000060
0000CC
00009C
0000B0
0000A0
0000A4
0000A4
0000A4
0000A4
0000A4
ENDCHAR
STARTCHAR eogonek
ENCODING 281
SWIDTH 666 0
DWIDTH 24 0
BBX 21 35 2 -10
BITMAP
A5FFF8
A58000
A5FFF8
A58000
A58000
A5FFF8
A58000
A58000
A58000
A5FFF0
A58000
A58000
A5FFF0
A58000
A5FFF0
A58000
A58000
A58000
A58000
A5FFF8
A58000
A5FFF8
A58000
A58000
A5FFF8
0001C0
000118
000378
000340
000340
000358
000358
000358
000358
000358
ENDCHAR
STARTCHAR Ecaron
ENCODING 282
SWIDTH 706 0
DWIDTH 25 0
BBX 22 41 2 0
BITMAP
06CD00
024B00
035A00
015200
011600
01B400
00AC00
00E800
005800
000000
000000
000000
A5FFFC
A58000
A5FFFC
A5FFFC
A58000
A5FFFC
A58000
A58000
A58000
A58000
A58000
A5FE00
A5FE00
A58000
A5FE00
A58000
A5FE00
A5FE00
A58000
A58000
A58000
A58000
A58000
A5FFFC
A58000
A5FFFC
A58000
A58000
A5FFFC
ENDCHAR
STARTCHAR ecaron
ENCODING 283
SWIDTH 666 0
DWIDTH 24 0
BBX 21 37 2 0
BITMAP
059B00
049200
02D600
02B400
032400
016C00
014800
00D800
00D000
000000
000000
000000
A5FFF8
A58000
A5FFF8
A58000
A58000
A5FFF8
A58000
A58000
A58000
A5FFF0
A58000
A58000
A5FFF0
A58000
A5FFF0
A58000
A58000
A58000
A58000
A5FFF8
A58000
A5FFF8
A58000
A58000
A5FFF8
ENDCHAR
STARTCHAR Gbreve
ENCODING 286
SWIDTH 908 0
DWIDTH 33 0
BBX 30 38 1 -1
BITMAP
00382800
00146800
0013D000
000C3000
0003C000
00000000
00000000
001FF800
00F00E00
0187E380
063EFCC0
0CE00660
198FF1B0
13381CD8
3663C660
2C9FF340
69301980
5B600600
D2400400
D6C00000
96800000
94800000
948006B4
948006B4
948006B4
D68006B4
D2C006B4
5B6006B4
493006B4
2D9FFEB4
36E3C6B4
13381EB4
198FFEB4
0CE006B4
063FFEB4
0187E6B4
00F00EB4
001FF800
ENDCHAR
STARTCHAR gbreve
ENCODING 287
SWIDTH 827 0
DWIDTH 30 0
BBX 27 34 1 -1
BITMAP
0050A000
0051A000
006F6000
0030C000
000F0000
00000000
000E0000
007FE000
01803800
063F8E00
0CF0F300
19861980
323FCC00
24E07600
6D9F1800
4B39D000
DA606000
D6C00000
94800000
94800000
B48035A0
948035A0
968035A0
D2C035A0
5B6035A0
493FF5A0
6D8635A0
266075A0
133FF5A0
19C035A0
0C7FF5A0
031F35A0
01C075A0
007FE000
ENDCHAR
STARTCHAR Gdotaccent
ENCODING 288
SWIDTH 908 0
DWIDTH 33 0
BBX 30 39 1 -1
BITMAP
0007E000
00000000
0007E000
0007E000
00000000
0007E000
00000000
00000000
001FF800
00F00E00
0187E380
063EFCC0
0CE00660
198FF1B0
13381CD8
3663C660
2C9FF340
69301980
5B600600
D2400400
D6C00000
96800000
94800000
948006B4
948006B4
948006B4
D68006B4
D2C006B4
5B6006B4
493006B4
2D9FFEB4
36E3C6B4
13381EB4
198FFEB4
0CE006B4
063FFEB4
0187E6B4
00F00EB4
001FF800
ENDCHAR
STARTCHAR gdotaccent
ENCODING 289
SWIDTH 827 0
DWIDTH 30 0
BBX 27 36 1 -1
BITMAP
001F8000
00000000
001F8000
001F8000
00000000
001F8000
00000000
00000000
000E0000
007FE000
01803800
063F8E00
0CF0F300
19861980
323FCC00
24E07600
6D9F1800
4B39D000
DA606000
D6C00000
94800000
94800000
B48035A0
948035A0
968035A0
D2C035A0
5B6035A0
493FF5A0
6D8635A0
266075A0
133FF5A0
19C035A0
0C7FF5A0
031F35A0
01C075A0
007FE000
ENDCHAR
STARTCHAR Gcommaaccent
ENCODING 290
SWIDTH 908 0
DWIDTH 33 0
BBX 30 45 1 -15
BITMAP
001FF800
00F00E00
0187E380
063EFCC0
0CE00660
198FF1B0
13381CD8
3663C660
2C9FF340
69301980
5B600600
D2400400
D6C00000
96800000
94800000
948006B4
948006B4
948006B4
D68006B4
D2C006B4
5B6006B4
493006B4
2D9FFEB4
36E3C6B4
13381EB4
198FFEB4
0CE006B4
063FFEB4
0187E6B4
00F00EB4
001FF800
00000000
00000000
00000000
00052000
00052000
00052000
00052000
00052000
00012000
00012000
00066000
00004000
00038000
00070000
ENDCHAR
STARTCHAR gcommaaccent
ENCODING 291
SWIDTH 827 0
DWIDTH 30 0
BBX 27 28 1 -1
BITMAP
000E0000
007FE000
01803800
063F8E00
0CF0F300
19861980
323FCC00
24E07600
6D9F1800
4B39D000
DA606000
D6C00000
94800000
94800000
B48035A0
948035A0
968035A0
D2C035A0
5B6035A0
493FF5A0
6D8635A0
266075A0
133FF5A0
19C035A0
0C7FF5A0
031F35A0
01C075A0
007FE000
ENDCHAR
STARTCHAR Hcircumflex
ENCODING 292
SWIDTH 901 0
DWIDTH 32 0
BBX 29 41 2 0
BITMAP
000D0000
000D8000
001C8000
0016C000
00324000
00274000
002D6000
00692000
0059B000
00000000
00000000
00000000
A5800B58
A5800B58
A5800B58
A5800B58
A5800B58
A5800B58
A5800B58
A5800B58
A5800B58
A5800B58
A5800B58
A5FFFB58
A5FFFB58
A5800B58
A5FFFB58
A5800B58
A5FFFB58
A5FFFB58
A5800B58
A5800B58
A5800B58
A5800B58
A5800B58
A5800B58
A5800B58
A5800B58
A5800B58
A5800B58
A5800B58
ENDCHAR
STARTCHAR hcircumflex
ENCODING 293
SWIDTH 830 0
DWIDTH 30 0
BBX 26 37 2 0
BITMAP
00120000
003A0000
002B0000
002D0000
00658000
00548000
00D68000
0092C000
00B34000
00000000
00000000
00000000
A5806B40
A5806B40
A5806B40
A5806B40
A5806B40
A5806B40
A5806B40
A5806B40
A5806B40
A5FFEB40
A5806B40
A5FFEB40
A5806B40
A5806B40
A5FFEB40
A5806B40
A5806B40
A5806B40
A5806B40
A5806B40
A5806B40
A5806B40
A5806B40
A5806B40
A5806B40
ENDCHAR
STARTCHAR Hbar
ENCODING 294
SWIDTH 901 0
DWIDTH 32 0
BBX 34 29 -1 0
BITMAP
14B0016B00
14B0016B00
14B0016B00
D4BFFD6BC0
D4BFFD6BC0
14B0016B00
D4BFFD6BC0
14B0016B00
14B0016B00
14B0016B00
14B0016B00
14BFFF6B00
14BFFF6B00
14B0016B00
14BFFF6B00
14B0016B00
14BFFF6B00
14BFFF6B00
14B0016B00
14B0016B00
14B0016B00
14B0016B00
14B0016B00
14B0016B00
14B0016B00
14B0016B00
14B0016B00
14B0016B00
14B0016B00
ENDCHAR
STARTCHAR hbar
ENCODING 295
SWIDTH 830 0
DWIDTH 30 0
BBX 31 25 -1 0
BITMAP
14B00D68
14B00D68
D4BFFD6A
D4BFFD6A
14B00D68
D4BFFD6A
14B00D68
14B00D68
14B00D68
14BFFD68
14B00D68
14BFFD68
14B00D68
14B00D68
14BFFD68
14B00D68
14B00D68
14B00D68
14B00D68
14B00D68
14B00D68
14B00D68
14B00D68
14B00D68
14B00D68
ENDCHAR
STARTCHAR Itilde
ENCODING 296
SWIDTH 338 0
DWIDTH 12 0
BBX 22 39 -5 0
BITMAP
07FE24
3FFE2C
60006C
4FFFC8
D80018
D1FFF0
D1FFC0
000000
000000
000000
014B00
014B00
014B00
014B00
014B00
014B00
014B00
014B00
014B00
014B00
014B00
014B00
014B00
014B00
014B00
014B00
014B00
014B00
014B00
014B00
014B00
014B00
014B00
014B00
014B00
014B00
014B00
014B00
014B00
ENDCHAR
STARTCHAR itilde
ENCODING 297
SWIDTH 337 0
DWIDTH 12 0
BBX 22 35 -5 0
BITMAP
07FE24
3FFE2C
60006C
4FFFC8
D80018
D1FFF0
D1FFC0
000000
000000
000000
014B00
014B00
014B00
014B00
014B00
014B00
014B00
014B00
014B00
014B00
014B00
014B00
014B00
014B00
014B00
014B00
014B00
014B00
014B00
014B00
014B00
014B00
014B00
014B00
014B00
ENDCHAR
STARTCHAR Imacron
ENCODING 298
SWIDTH 338 0
DWIDTH 12 0
BBX 9 29 2 0
BITMAP
A580
A580
A580
A580
A580
A580
A580
A580
A580
A580
A580
A580
A580
A580
A580
A580
A580
A580
A580
A580
A580
A580
A580
A580
A580
A580
A580
A580
A580
ENDCHAR
STARTCHAR imacron
ENCODING 299
SWIDTH 337 0
DWIDTH 12 0
BBX 9 25 2 0
BITMAP
A580
A580
A580
A580
A580
A580
A580
A580
A580
A580
A580
A580
A580
A580
A580
A580
A580
A580
A580
A580
A580
A580
A580
A580
A580
ENDCHAR
STARTCHAR Ibreve
ENCODING 300
SWIDTH 338 0
DWIDTH 12 0
BBX 10 37 1 0
BITMAP
A140
A140
DEC0
6180
1E00
0000
0000
0000
52C0
52C0
52C0
52C0
52C0
52C0
52C0
52C0
52C0
52C0
52C0
52C0
52C0
52C0
52C0
52C0
52C0
52C0
52C0
52C0
52C0
52C0
52C0
52C0
52C0
52C0
52C0
52C0
52C0
ENDCHAR
STARTCHAR ibreve
ENCODING 301
SWIDTH 337 0
DWIDTH 12 0
BBX 10 33 1 0
BITMAP
A140
A140
DEC0
6180
1E00
0000
0000
0000
52C0
52C0
52C0
52C0
52C0
52C0
52C0
52C0
52C0
52C0
52C0
52C0
52C0
52C0
52C0
52C0
52C0
52C0
52C0
52C0
52C0
52C0
52C0
52C0
52C0
ENDCHAR
STARTCHAR Iogonek
ENCODING 302
SWIDTH 338 0
DWIDTH 12 0
BBX 9 39 2 -10
BITMAP
A580
A580
A580
A580
A580
A580
A580
A580
A580
A580
A580
A580
A580
A580
A580
A580
A580
A580
A580
A580
A580
A580
A580
A580
A580
A580
A580
A580
AF80
1800
1100
3700
2400
2400
2500
2500
2500
2500
2500
ENDCHAR
STARTCHAR iogonek
ENCODING 303
SWIDTH 337 0
DWIDTH 12 0
BBX 9 35 2 -10
BITMAP
A580
A580
A580
A580
A580
A580
A580
A580
A580
A580
A580
A580
A580
A580
A580
A580
A580
A580
A580
A580
A580
A580
A580
A580
A780
1C00
1180
3780
3400
2400
2580
2580
2580
2580
2580
ENDCHAR
STARTCHAR Idotaccent
ENCODING 304
SWIDTH 338 0
DWIDTH 12 0
BBX 9 38 2 0
BITMAP
7E00
0000
7E00
7E00
0000
7E00
0000
0000
0000
A580
A580
A580
A580
A580
A580
A580
A580
A580
A580
A580
A580
A580
A580
A580
A580
A580
A580
A580
A580
A580
A580
A580
A580
A580
A580
A580
A580
A580
ENDCHAR
STARTCHAR dotlessi
ENCODING 305
SWIDTH 337 0
DWIDTH 12 0
BBX 9 25 2 0
BITMAP
A580
A580
A580
A580
A580
A580
A580
A580
A580
A580
A580
A580
A580
A580
A580
A580
A580
A580
A580
A580
A580
A580
A580
A580
A580
ENDCHAR
STARTCHAR IJ
ENCODING 306
SWIDTH 774 0
DWIDTH 28 0
BBX 24 30 2 -1
BITMAP
A501AD
A501AD
A501AD
A501AD
A501AD
A501AD
A501AD
A501AD
A501AD
A501AD
A501AD
A501AD
A501AD
A501AD
A501AD
A501AD
A501AD
A501AD
A501AD
A501AD
A5012D
A51F69
A51CCB
A50192
A51F36
A50064
A51FC8
A51E30
A500E0
001F80
ENDCHAR
STARTCHAR ij
ENCODING 307
SWIDTH 729 0
DWIDTH 26 0
BBX 23 29 2 -4
BITMAP
A582D6
A582D6
A582D6
A582D6
A582D6
A582D6
A582D6
A582D6
A582D6
A582D6
A582D6
A582D6
A582D6
A582D6
A582D6
A582D6
A582D6
A582D6
A582D6
A58496
A599B4
A58324
A59E68
A590D8
A58330
001E60
0001C0
001F00
001C00
ENDCHAR
STARTCHAR Jcircumflex
ENCODING 308
SWIDTH 434 0
DWIDTH 16 0
BBX 14 42 1 -1
BITMAP
0360
0320
03B0
0690
04D0
0558
0948
0B6C
1A24
0000
0000
0000
0968
0968
0968
0968
0968
0968
0968
0968
0968
0968
0968
0968
0968
0968
0968
0968
0968
0968
0968
0948
0B48
FA58
E6D0
0C90
F9B0
0360
FCC0
F180
0700
FC00
ENDCHAR
STARTCHAR jcircumflex
ENCODING 309
SWIDTH 393 0
DWIDTH 14 0
BBX 13 41 1 -4
BITMAP
0680
06C0
0E40
0B40
1920
15A0
16B0
3490
2CD8
0000
0000
0000
16B0
16B0
16B0
16B0
16B0
16B0
16B0
16B0
16B0
16B0
16B0
16B0
16B0
16B0
16B0
16B0
16B0
16B0
34B0
65A0
CD20
1960
F240
86C0
1980
F300
0E00
F800
E000
ENDCHAR
STARTCHAR Kcommaaccent
ENCODING 310
SWIDTH 815 0
DWIDTH 29 0
BBX 27 42 2 -13
BITMAP
A580DB60
A58092C0
A581B480
A5812D80
A5836900
A5825B00
A586D200
A584B600
A58DA400
A5896C00
A59B4800
A592D800
A5B49000
A5A5B000
A5ED2000
A5A5B000
A5B69000
A592D800
A59B4800
A5896C00
A58DA400
A5849600
A586D200
A5824B00
A5836900
A5812580
A581B480
A58092C0
A580DB60
00000000
00000000
002D0000
002D0000
002D0000
002D0000
002D0000
000D0000
000D0000
00390000
00030000
000E0000
00380000
ENDCHAR
STARTCHAR kcommaaccent
ENCODING 311
SWIDTH 801 0
DWIDTH 29 0
BBX 26 38 2 -13
BITMAP
A580DAC0
A581B480
A5812D80
A5834900
A5825B00
A5869200
A585B400
A5892400
A59B6800
A5925800
A5B69000
A5A5B000
A5ED2000
A5A4B000
A5B6D000
A5925800
A58B6800
A5892400
A585B600
A5869200
A5825B00
A5836900
A5812D80
A581B480
A580D2C0
00000000
00000000
002D0000
002D0000
002D0000
002D0000
002D0000
00090000
00090000
003B0000
00020000
000E0000
00380000
ENDCHAR
STARTCHAR kgreenlandic
ENCODING 312
SWIDTH 801 0
DWIDTH 29 0
BBX 26 25 2 0
BITMAP
A580DAC0
A581B480
A5812D80
A5834900
A5825B00
A5869200
A585B400
A5892400
A59B6800
A5925800
A5B69000
A5A5B000
A5ED2000
A5A4B000
A5B6D000
A5925800
A58B6800
A5892400
A585B600
A5869200
A5825B00
A5836900
A5812D80
A581B480
A580D2C0
ENDCHAR
STARTCHAR Lacute
ENCODING 313
SWIDTH 604 0
DWIDTH 22 0
BBX 21 41 2 0
BITMAP
000060
000180
000638
0038E0
00E380
038E00
013800
00E000
000000
000000
000000
000000
A58000
A58000
A58000
A58000
A58000
A58000
A58000
A58000
A58000
A58000
A58000
A58000
A58000
A58000
A58000
A58000
A58000
A58000
A58000
A58000
A58000
A58000
A58000
A5FFE0
A58000
A5FFE0
A58000
A58000
A5FFE0
ENDCHAR
STARTCHAR lacute
ENCODING 314
SWIDTH 583 0
DWIDTH 21 0
BBX 18 37 2 0
BITMAP
000C00
003000
01C700
071C00
1C7000
71C000
270000
1C0000
000000
000000
000000
000000
A58000
A58000
A58000
A58000
A58000
A58000
A58000
A58000
A58000
A58000
A58000
A58000
A58000
A58000
A58000
A58000
A58000
A58000
A58000
A5FFC0
A58000
A5FFC0
A58000
A58000
A5FFC0
ENDCHAR
STARTCHAR Lcommaaccent
ENCODING 315
SWIDTH 604 0
DWIDTH 22 0
BBX 19 42 2 -13
BITMAP
A58000
A58000
A58000
A58000
A58000
A58000
A58000
A58000
A58000
A58000
A58000
A58000
A58000
A58000
A58000
A58000
A58000
A58000
A58000
A58000
A58000
A58000
A58000
A5FFE0
A58000
A5FFE0
A58000
A58000
A5FFE0
000000
000000
02D000
02D000
02D000
02D000
02D000
00D000
00D000
039000
003000
00E000
038000
ENDCHAR
STARTCHAR lcommaaccent
ENCODING 316
SWIDTH 583 0
DWIDTH 21 0
BBX 18 38 2 -13
BITMAP
A58000
A58000
A58000
A58000
A58000
A58000
A58000
A58000
A58000
A58000
A58000
A58000
A58000
A58000
A58000
A58000
A58000
A58000
A58000
A5FFC0
A58000
A5FFC0
A58000
A58000
A5FFC0
000000
000000
029000
029000
029000
029000
029000
009000
009000
033000
002000
01C000
038000
ENDCHAR
STARTCHAR Lcaron
ENCODING 317
SWIDTH 856 0
DWIDTH 31 0
BBX 28 30 2 0
BITMAP
000006B0
A50006B0
A50006B0
A50006B0
A50006B0
A50000B0
A50000B0
A5000720
A5000460
A50000C0
A5000780
A5000000
A5000000
A5000000
A5000000
A5000000
A5000000
A5000000
A5000000
A5000000
A5000000
A5000000
A5000000
A5000000
A5FFE000
A5000000
A5FFE000
A5000000
A5000000
A5FFE000
ENDCHAR
STARTCHAR lcaron
ENCODING 318
SWIDTH 584 0
DWIDTH 21 0
BBX 18 26 2 0
BITMAP
0012C0
A592C0
A592C0
A592C0
A592C0
A582C0
A58680
A59C80
A59180
A58300
A59E00
A58000
A58000
A58000
A58000
A58000
A58000
A58000
A58000
A58000
A5FFC0
A58000
A5FFC0
A58000
A58000
A5FFC0
ENDCHAR
STARTCHAR Ldot
ENCODING 319
SWIDTH 604 0
DWIDTH 22 0
BBX 19 29 2 0
BITMAP
A58000
A58000
A58000
A58000
A58000
A58000
A58000
A58000
A58000
A58000
A58000
A59F80
A58000
A59F80
A59F80
A58000
A59F80
A58000
A58000
A58000
A58000
A58000
A58000
A5FFE0
A58000
A5FFE0
A58000
A58000
A5FFE0
ENDCHAR
STARTCHAR ldot
ENCODING 320
SWIDTH 582 0
DWIDTH 21 0
BBX 18 25 2 0
BITMAP
A58000
A58000
A58000
A58000
A58000
A59F80
A58000
A59F80
A59F80
A58000
A59F80
A58000
A58000
A58000
A58000
A58000
A58000
A58000
A58000
A5FFC0
A58000
A5FFC0
A58000
A58000
A5FFC0
ENDCHAR
STARTCHAR Lslash
ENCODING 321
SWIDTH 604 0
DWIDTH 22 0
BBX 23 29 -2 0
BITMAP
0A5800
0A5800
0A5800
0A5800
0A5800
0A5800
0A5860
0A5BC0
0A5E00
0A58E0
0A5F80
2A5C60
EA5BC0
8A5E00
6A5800
CA5800
0A5800
EA5800
8A5800
0A5800
0A5800
0A5800
0A5800
0A5FFE
0A5800
0A5FFE
0A5800
0A5800
0A5FFE
ENDCHAR
STARTCHAR lslash
ENCODING 322
SWIDTH 581 0
DWIDTH 21 0
BBX 22 25 -2 0
BITMAP
0A5800
0A5800
0A5800
0A5800
0A5860
0A5BC0
0A5E20
0A58E0
0A5F00
2A5C60
EA5BC0
8A5E00
6A5800
CA5800
2A5800
EA5800
8A5800
0A5800
0A5800
0A5FFC
0A5800
0A5FFC
0A5800
0A5800
0A5FFC
ENDCHAR
STARTCHAR Nacute
ENCODING 323
SWIDTH 877 0
DWIDTH 32 0
BBX 28 41 2 0
BITMAP
00000600
00001C00
000071C0
0001C700
00071C00
001C7000
0011C000
00070000
00000000
00000000
00000000
00000000
D2401290
C9201290
EDB01290
A4901290
B6D81290
9B6C1290
A9241290
ADB61290
A4921290
A25B1290
AB6D9290
A5249290
A5B6D290
A4925290
A5492A90
A56DB290
A5A49290
A5B6DA90
A59B6A90
A5892490
A58DB690
A5849290
A582DB50
A5836D90
A5812490
A581B6D0
A5809250
A5804970
A5806DB0
ENDCHAR
STARTCHAR nacute
ENCODING 324
SWIDTH 787 0
DWIDTH 28 0
BBX 25 37 2 0
BITMAP
00000C00
00003800
0000C700
00031C00
001C7000
0071C000
00270000
001C0000
00000000
00000000
00000000
00000000
DB603580
C9203580
EDB03580
A4903580
B6D83580
BA483580
A9243580
ADB63580
A4923580
A6DB3580
AA493580
A76DB580
A5B6B580
A4925580
A4DB7580
A4492580
A46DB580
A4249580
A416DD80
A41B6980
A4092580
A40DB780
A4049380
A406DB80
A4036D80
ENDCHAR
STARTCHAR Ncommaaccent
ENCODING 325
SWIDTH 877 0
DWIDTH 32 0
BBX 28 42 2 -13
BITMAP
D2401290
C9201290
EDB01290
A4901290
B6D81290
9B6C1290
A9241290
ADB61290
A4921290
A25B1290
AB6D9290
A5249290
A5B6D290
A4925290
A5492A90
A56DB290
A5A49290
A5B6DA90
A59B6A90
A5892490
A58DB690
A5849290
A582DB50
A5836D90
A5812490
A581B6D0
A5809250
A5804970
A5806DB0
00000000
00000000
00148000
00148000
00148000
00148000
00148000
00048000
00048000
001D8000
00010000
000F0000
001C0000
ENDCHAR
STARTCHAR ncommaaccent
ENCODING 326
SWIDTH 787 0
DWIDTH 28 0
BBX 25 38 2 -13
BITMAP
DB603580
C9203580
EDB03580
A4903580
B6D83580
BA483580
A9243580
ADB63580
A4923580
A6DB3580
AA493580
A76DB580
A5B6B580
A4925580
A4DB7580
A4492580
A46DB580
A4249580
A416DD80
A41B6980
A4092580
A40DB780
A4049380
A406DB80
A4036D80
00000000
00000000
004A0000
004A0000
004A0000
004A0000
004A0000
001A0000
001A0000
00720000
00060000
001C0000
00700000
ENDCHAR
STARTCHAR Ncaron
ENCODING 327
SWIDTH 877 0
DWIDTH 32 0
BBX 28 41 2 0
BITMAP
00D1A000
00596000
006B4000
002A4000
0026C000
00348000
00158000
001D0000
000B0000
00000000
00000000
00000000
D2401290
C9201290
EDB01290
A4901290
B6D81290
9B6C1290
A9241290
ADB61290
A4921290
A25B1290
AB6D9290
A5249290
A5B6D290
A4925290
A5492A90
A56DB290
A5A49290
A5B6DA90
A59B6A90
A5892490
A58DB690
A5849290
A582DB50
A5836D90
A5812490
A581B6D0
A5809250
A5804970
A5806DB0
ENDCHAR
STARTCHAR ncaron
ENCODING 328
SWIDTH 787 0
DWIDTH 28 0
BBX 25 37 2 0
BITMAP
0166C000
01A48000
00B58000
00AD0000
00C90000
005B0000
00520000
00360000
00340000
00000000
00000000
00000000
DB603580
C9203580
EDB03580
A4903580
B6D83580
BA483580
A9243580
ADB63580
A4923580
A6DB3580
AA493580
A76DB580
A5B6B580
A4925580
A4DB7580
A4492580
A46DB580
A4249580
A416DD80
A41B6980
A4092580
A40DB780
A4049380
A406DB80
A4036D80
ENDCHAR
STARTCHAR Eng
ENCODING 330
SWIDTH 874 0
DWIDTH 31 0
BBX 28 40 2 -11
BITMAP
D3401690
C9201690
EDB01690
A4901690
92481690
9B6C1690
A9241690
ADB21690
A6DB1690
A2491690
AB6D9690
A5B6D690
A4925690
A4DB5690
A549B690
A5249690
A5B6D690
A5925690
A59B5690
A58D9690
A5849690
A586D690
A5825690
A5815690
A5819690
A5809690
A580D690
A5805690
A5805690
000016B0
000036B0
0001E4B0
0001CDA0
00001960
0001F240
00000CC0
0001F980
0001E300
00000E00
0001F800
ENDCHAR
STARTCHAR eng
ENCODING 331
SWIDTH 691 0
DWIDTH 25 0
BBX 21 35 2 -10
BITMAP
DB6168
C92168
EDB168
A49168
B6D968
BA4968
A92D68
ADB568
A49568
A6DB68
AA4968
A76D68
A5B568
A49568
A4DB68
A44968
A46D68
A42568
A41568
A41B68
A40968
A40D68
A40568
A40568
A40368
000168
000168
000368
000E58
000CD0
0003B0
000E60
0000C0
000780
000E00
ENDCHAR
STARTCHAR Omacron
ENCODING 332
SWIDTH 933 0
DWIDTH 34 0
BBX 32 31 1 -1
BITMAP
001FF800
00F00E00
0187E380
063E7CC0
0CE00660
198FF1B0
13381CD8
3663C648
2C9FF324
693019B4
5B600496
D24002DA
D6C0025A
9680034A
9480016B
9480016B
9480016B
9680034A
D6C0025A
5A4006D2
5B600496
693019B4
248FF324
3663C648
13381CD8
098FF330
0CE00660
033FF8C0
0183C380
00700E00
001FF800
ENDCHAR
STARTCHAR omacron
ENCODING 333
SWIDTH 833 0
DWIDTH 30 0
BBX 28 28 1 -1
BITMAP
000E0000
007FE000
01803800
063F8E00
0CF0F300
19841980
323FCC80
24E07640
6D9F1B60
4B39C920
DA606DA0
D6C034B0
948016B0
94801690
B4801690
948016B0
968036B0
D2C025A0
5B606D20
493FD960
6D873240
2660E6C0
133F8C80
19C03900
0C7FE600
031F0C00
01C07800
007FC000
ENDCHAR
STARTCHAR Obreve
ENCODING 334
SWIDTH 933 0
DWIDTH 34 0
BBX 32 38 1 -1
BITMAP
00382800
00146800
0013D000
000C3000
0003C000
00000000
00000000
001FF800
00F00E00
0187E380
063E7CC0
0CE00660
198FF1B0
13381CD8
3663C648
2C9FF324
693019B4
5B600496
D24002DA
D6C0025A
9680034A
9480016B
9480016B
9480016B
9680034A
D6C0025A
5A4006D2
5B600496
693019B4
248FF324
3663C648
13381CD8
098FF330
0CE00660
033FF8C0
0183C380
00700E00
001FF800
ENDCHAR
STARTCHAR obreve
ENCODING 335
SWIDTH 833 0
DWIDTH 30 0
BBX 28 34 1 -1
BITMAP
0050A000
0051A000
006F6000
0030C000
000F0000
00000000
000E0000
007FE000
01803800
063F8E00
0CF0F300
19841980
323FCC80
24E07640
6D9F1B60
4B39C920
DA606DA0
D6C034B0
948016B0
94801690
B4801690
948016B0
968036B0
D2C025A0
5B606D20
493FD960
6D873240
2660E6C0
133F8C80
19C03900
0C7FE600
031F0C00
01C07800
007FC000
ENDCHAR
STARTCHAR Ohungarumlaut
ENCODING 336
SWIDTH 933 0
DWIDTH 34 0
BBX 34 42 1 -1
BITMAP
0000600300
0001C00E00
00073838C0
001CE0E700
0063839C00
038E1E7000
013809C000
00E0070000
0000000000
0000000000
0000000000
001FF80000
00F00E0000
0187E38000
063E7CC000
0CE0066000
198FF1B000
13381CD800
3663C64800
2C9FF32400
693019B400
5B60049600
D24002DA00
D6C0025A00
9680034A00
9480016B00
9480016B00
9480016B00
9680034A00
D6C0025A00
5A4006D200
5B60049600
693019B400
248FF32400
3663C64800
13381CD800
098FF33000
0CE0066000
033FF8C000
0183C38000
00700E0000
001FF80000
ENDCHAR
STARTCHAR ohungarumlaut
ENCODING 337
SWIDTH 833 0
DWIDTH 30 0
BBX 32 38 1 -1
BITMAP
0001800C
00070038
001CE0E3
0073838C
01CE0E30
0E3879C0
04E02700
03801C00
00000000
00000000
000E0000
007FE000
01803800
063F8E00
0CF0F300
19841980
323FCC80
24E07640
6D9F1B60
4B39C920
DA606DA0
D6C034B0
948016B0
94801690
B4801690
948016B0
968036B0
D2C025A0
5B606D20
493FD960
6D873240
2660E6C0
133F8C80
19C03900
0C7FE600
031F0C00
01C07800
007FC000
ENDCHAR
STARTCHAR OE
ENCODING 338
SWIDTH 1317 0
DWIDTH 47 0
BBX 45 31 1 -1
BITMAP
001FF8000000
00F00E6BFFF8
0187E3EB0000
063E7CEBFFF8
0CE0066BFFF8
198FF3EB0000
13381CEBFFF8
36E3C66B0000
2C9FF36B0000
693019EB0000
5B6004EB0000
D24006EB0000
D680026BFE00
9480036BFE00
9480016B0000
B480016BFE00
9480016B0000
9680036BFE00
D680026BFE00
D24006EB0000
5B6004EB0000
693019EB0000
2C8FF36B0000
3663866B0000
13381CEBFFF8
098FF36B0000
0CE00E6BFFF8
033FF8EB0000
0183C3EB0000
00700E6BFFF8
001FF8000000
ENDCHAR
STARTCHAR oe
ENCODING 339
SWIDTH 1174 0
DWIDTH 42 0
BBX 40 28 1 -1
BITMAP
000E000000
007FE00000
01803EBFFF
063F8EB000
0CF0F6BFFF
19841EB000
323FCEB000
24E076BFFF
6D9F1EB000
4B39CEB000
DA606EB000
D6C036BFFE
948016B000
948016B000
B48016BFFE
948016B000
968036BFFE
D2C026B000
5B606EB000
493FDEB000
6D8736B000
2660E6BFFF
133F8EB000
19C03EBFFF
0C7FE6B000
031F0EB000
01C07EBFFF
007FE00000
ENDCHAR
STARTCHAR Racute
ENCODING 340
SWIDTH 843 0
DWIDTH 30 0
BBX 27 41 2 0
BITMAP
0000C000
00038000
000E7000
0039C000
00C70000
071C0000
02700000
01C00000
00000000
00000000
00000000
00000000
FFFFF000
80001C00
BFFF8300
BFFFF980
A0000C80
A7FFE640
A4003B60
A5FF8920
A5FFE5A0
A58035A0
A58035A0
A58035A0
A5FFED20
A5800960
A5807360
A5FFC6C0
A5800C80
A5FFF180
A5800700
A5807C00
A5FFF600
A5825200
A5835A00
A5816B00
A5812900
A581AD00
A580B580
A5809480
A580D6C0
ENDCHAR
STARTCHAR Rcommaaccent
ENCODING 342
SWIDTH 843 0
DWIDTH 30 0
BBX 27 42 2 -13
BITMAP
FFFFF000
80001C00
BFFF8300
BFFFF980
A0000C80
A7FFE640
A4003B60
A5FF8920
A5FFE5A0
A58035A0
A58035A0
A58035A0
A5FFED20
A5800960
A5807360
A5FFC6C0
A5800C80
A5FFF180
A5800700
A5807C00
A5FFF600
A5825200
A5835A00
A5816B00
A5812900
A581AD00
A580B580
A5809480
A580D6C0
00000000
00000000
00690000
00690000
00690000
00690000
00690000
000B0000
000B0000
00730000
00020000
001C0000
00780000
ENDCHAR
STARTCHAR rcommaaccent
ENCODING 343
SWIDTH 831 0
DWIDTH 30 0
BBX 27 38 2 -13
BITMAP
FFFFF800
80000E00
BFFFE300
A0007980
A0000C80
A7FFE6C0
A4001B40
A5FFC960
A5FFED60
A5802D60
A5FFED60
A5FFC960
A5801B40
A5FFE6C0
A5800C80
A5FFF980
A5FFE300
A5800E00
A5FFFC00
A584A400
A586B600
A582D600
A5835A00
A5814B00
A581AD00
00000000
00000000
005A0000
005A0000
005A0000
005A0000
005A0000
001A0000
00120000
00760000
00040000
001C0000
00700000
ENDCHAR
STARTCHAR Rcaron
ENCODING 344
SWIDTH 843 0
DWIDTH 30 0
BBX 27 41 2 0
BITMAP
162C0000
1A680000
0B580000
09D00000
0C900000
04B00000
07A00000
03600000
03400000
00000000
00000000
00000000
FFFFF000
80001C00
BFFF8300
BFFFF980
A0000C80
A7FFE640
A4003B60
A5FF8920
A5FFE5A0
A58035A0
A58035A0
A58035A0
A5FFED20
A5800960
A5807360
A5FFC6C0
A5800C80
A5FFF180
A5800700
A5807C00
A5FFF600
A5825200
A5835A00
A5816B00
A5812900
A581AD00
A580B580
A5809480
A580D6C0
ENDCHAR
STARTCHAR rcaron
ENCODING 345
SWIDTH 831 0
DWIDTH 30 0
BBX 27 37 2 0
BITMAP
00B36000
00D24000
005AC000
004E8000
00648000
00258000
003D0000
001B0000
001A0000
00000000
00000000
00000000
FFFFF800
80000E00
BFFFE300
A0007980
A0000C80
A7FFE6C0
A4001B40
A5FFC960
A5FFED60
A5802D60
A5FFED60
A5FFC960
A5801B40
A5FFE6C0
A5800C80
A5FFF980
A5FFE300
A5800E00
A5FFFC00
A584A400
A586B600
A582D600
A5835A00
A5814B00
A581AD00
ENDCHAR
STARTCHAR Sacute
ENCODING 346
SWIDTH 682 0
DWIDTH 25 0
BBX 23 42 1 -1
BITMAP
000018
000070
0001C6
00071C
001C60
00F180
004E00
003800
000000
000000
000000
03FF80
0E00F0
18FE18
33E7C6
660070
4CFF98
5B00E0
D23E00
96EF80
948000
948000
96FF00
D203C0
59C060
6CFF30
2601D8
33FE48
1C072C
0781A4
01FCB4
000694
000694
03FCB4
0879B4
0E032C
23FE48
1801D8
CFFF30
70F860
1E01C0
07FF00
ENDCHAR
STARTCHAR sacute
ENCODING 347
SWIDTH 683 0
DWIDTH 25 0
BBX 23 38 1 -1
BITMAP
000018
000070
0001C6
00071C
001C60
00F180
004E00
003800
000000
000000
000000
01FF00
0783E0
180038
33FF8E
6600E4
48FE18
D387C0
960060
940000
960000
D3FF00
4807E0
670030
31FF98
1C00CC
07FE24
000FB4
000094
000094
0C01B4
27FF24
38786C
8F03D8
63FE30
3800E0
0FFF80
003800
ENDCHAR
STARTCHAR Scircumflex
ENCODING 348
SWIDTH 682 0
DWIDTH 25 0
BBX 23 42 1 -1
BITMAP
006800
006C00
00E400
00B600
009200
013A00
016B00
034900
024D80
000000
000000
03FF80
0E00F0
18FE18
33E7C6
660070
4CFF98
5B00E0
D23E00
96EF80
948000
948000
96FF00
D203C0
59C060
6CFF30
2601D8
33FE48
1C072C
0781A4
01FCB4
000694
000694
03FCB4
0879B4
0E032C
23FE48
1801D8
CFFF30
70F860
1E01C0
07FF00
ENDCHAR
STARTCHAR scircumflex
ENCODING 349
SWIDTH 683 0
DWIDTH 25 0
BBX 23 38 1 -1
BITMAP
006800
006C00
00F400
00B600
009200
01BA00
016B00
034900
024D80
000000
000000
01FF00
0783E0
180038
33FF8E
6600E4
48FE18
D387C0
960060
940000
960000
D3FF00
4807E0
670030
31FF98
1C00CC
07FE24
000FB4
000094
000094
0C01B4
27FF24
38786C
8F03D8
63FE30
3800E0
0FFF80
003800
ENDCHAR
STARTCHAR Scedilla
ENCODING 350
SWIDTH 682 0
DWIDTH 25 0
BBX 23 43 1 -13
BITMAP
03FF80
0E00F0
18FE18
33E7C6
660070
4CFF98
5B00E0
D23E00
96EF80
948000
948000
96FF00
D203C0
59C060
6CFF30
2601D8
33FE48
1C072C
0781A4
01FCB4
000694
000694
03FCB4
0879B4
0E032C
23FE48
1801D8
CFFF30
70F860
1E01C0
07FF00
006800
00E800
030800
061800
04F800
048000
048000
048000
067800
020000
03F800
003800
ENDCHAR
STARTCHAR scedilla
ENCODING 351
SWIDTH 683 0
DWIDTH 25 0
BBX 23 38 1 -12
BITMAP
01FF00
0783E0
180038
33FF8E
6600E4
48FE18
D387C0
960060
940000
960000
D3FF00
4807E0
670030
31FF98
1C00CC
07FE24
000FB4
000094
000094
0C01B4
27FF24
38786C
8F03D8
63FE30
3800E0
0FFF80
007800
01E800
030800
061800
04F800
048000
048000
048000
067800
020000
01F800
003800
ENDCHAR
STARTCHAR Scaron
ENCODING 352
SWIDTH 682 0
DWIDTH 25 0
BBX 23 42 1 -1
BITMAP
024480
016D00
012900
01AB00
009A00
009200
007600
006400
006C00
000000
000000
03FF80
0E00F0
18FE18
33E7C6
660070
4CFF98
5B00E0
D23E00
96EF80
948000
948000
96FF00
D203C0
59C060
6CFF30
2601D8
33FE48
1C072C
0781A4
01FCB4
000694
000694
03FCB4
0879B4
0E032C
23FE48
1801D8
CFFF30
70F860
1E01C0
07FF00
ENDCHAR
STARTCHAR scaron
ENCODING 353
SWIDTH 683 0
DWIDTH 25 0
BBX 23 38 1 -1
BITMAP
024480
016D00
012900
01AB00
009A00
009200
007600
006400
006C00
000000
000000
01FF00
0783E0
180038
33FF8E
6600E4
48FE18
D387C0
960060
940000
960000
D3FF00
4807E0
670030
31FF98
1C00CC
07FE24
000FB4
000094
000094
0C01B4
27FF24
38786C
8F03D8
63FE30
3800E0
0FFF80
003800
ENDCHAR
STARTCHAR Tcommaaccent
ENCODING 354
SWIDTH 591 0
DWIDTH 21 0
BBX 19 41 1 -12
BITMAP
FFFFE0
000000
FFFFE0
FFFFE0
000000
FFFFE0
04A400
04A400
04A400
04A400
04A400
04A400
04A400
04A400
04A400
04A400
04A400
04A400
04A400
04A400
04A400
04A400
04A400
04A400
04A400
04A400
04A400
04A400
04A400
00A000
03A000
0E2000
086000
1BE000
1A0000
1A0000
1B0000
09E000
0C0000
07E000
006000
ENDCHAR
STARTCHAR tcommaaccent
ENCODING 355
SWIDTH 588 0
DWIDTH 21 0
BBX 19 37 1 -12
BITMAP
FFFFE0
000000
FFFFE0
000000
000000
FFFFE0
000000
04A400
04A400
04A400
04A400
04A400
04A400
04A400
04A400
04A400
04A400
04A400
04A400
04A400
04A400
04A400
04A400
04A400
04A400
00A000
03A000
0E2000
086000
1BE000
1A0000
1A0000
1B0000
09E000
0C0000
07E000
006000
ENDCHAR
STARTCHAR Tcaron
ENCODING 356
SWIDTH 591 0
DWIDTH 21 0
BBX 19 41 1 0
BITMAP
0D1200
05B600
04A400
06AC00
026800
034800
01D800
019000
01B000
000000
000000
000000
FFFFE0
000000
FFFFE0
FFFFE0
000000
FFFFE0
04A400
04A400
04A400
04A400
04A400
04A400
04A400
04A400
04A400
04A400
04A400
04A400
04A400
04A400
04A400
04A400
04A400
04A400
04A400
04A400
04A400
04A400
04A400
ENDCHAR
STARTCHAR tcaron
ENCODING 357
SWIDTH 842 0
DWIDTH 30 0
BBX 28 26 1 0
BITMAP
000002D0
FFFFE2D0
000002D0
FFFFE2D0
000002D0
000000D0
FFFFE090
000003B0
04A40420
04A400E0
04A40380
04A40000
04A40000
04A40000
04A40000
04A40000
04A40000
04A40000
04A40000
04A40000
04A40000
04A40000
04A40000
04A40000
04A40000
04A40000
ENDCHAR
STARTCHAR Tbar
ENCODING 358
SWIDTH 591 0
DWIDTH 21 0
BBX 19 29 1 0
BITMAP
FFFFE0
000000
FFFFE0
FFFFE0
000000
FFFFE0
04A400
04A400
04A400
04A400
04A400
F4A5E0
04A400
04A400
F4A5E0
04A400
F4A5E0
F4A5E0
04A400
04A400
04A400
04A400
04A400
04A400
04A400
04A400
04A400
04A400
04A400
ENDCHAR
STARTCHAR tbar
ENCODING 359
SWIDTH 588 0
DWIDTH 21 0
BBX 19 25 1 0
BITMAP
FFFFE0
000000
FFFFE0
000000
000000
FFFFE0
000000
04A400
04A400
04A400
04A400
04A400
F4A5E0
04A400
F4A5E0
F4A5E0
04A400
F4A5E0
04A400
04A400
04A400
04A400
04A400
04A400
04A400
ENDCHAR
STARTCHAR Utilde
ENCODING 360
SWIDTH 905 0
DWIDTH 33 0
BBX 30 40 1 -1
BITMAP
007FF240
03FFF240
060006C0
04FFFCC0
05800080
051FFF00
0D1FFC00
00000000
00000000
00000000
D28004A4
D28004A4
D28004A4
D28004A4
D28004A4
D28004A4
D28004A4
D28004A4
D28004A4
D28004A4
D28004A4
D28004A4
D28004A4
D28004A4
D28004A4
D28004A4
D28004A4
D28004A4
5AC005AC
5B60092C
69301B68
2D9FE658
26C30C90
137039B0
199FE360
0CE00EC0
063FF980
0387C300
00F01C00
003FF000
ENDCHAR
STARTCHAR utilde
ENCODING 361
SWIDTH 795 0
DWIDTH 29 0
BBX 26 36 1 -1
BITMAP
01FFCD00
0FFFC900
18000900
13FFF300
16000200
167FFC00
147FF000
00000000
00000000
00000000
D6806B40
D6806B40
D6806B40
D6806B40
D6806B40
D6806B40
D6806B40
D6806B40
D6806B40
D6806B40
D6806B40
D6806B40
D6806B40
D6806B40
D2804B40
52C04A40
5A60DAC0
4B3FB6C0
6D8C6480
24E0CD80
333F9900
19807200
0CFFC400
071E1800
01C07000
007FC000
ENDCHAR
STARTCHAR Umacron
ENCODING 362
SWIDTH 905 0
DWIDTH 33 0
BBX 30 30 1 -1
BITMAP
D28004A4
D28004A4
D28004A4
D28004A4
D28004A4
D28004A4
D28004A4
D28004A4
D28004A4
D28004A4
D28004A4
D28004A4
D28004A4
D28004A4
D28004A4
D28004A4
D28004A4
D28004A4
5AC005AC
5B60092C
69301B68
2D9FE658
26C30C90
137039B0
199FE360
0CE00EC0
063FF980
0387C300
00F01C00
003FF000
ENDCHAR
STARTCHAR umacron
ENCODING 363
SWIDTH 795 0
DWIDTH 29 0
BBX 26 26 1 -1
BITMAP
D6806B40
D6806B40
D6806B40
D6806B40
D6806B40
D6806B40
D6806B40
D6806B40
D6806B40
D6806B40
D6806B40
D6806B40
D6806B40
D6806B40
D2804B40
52C04A40
5A60DAC0
4B3FB6C0
6D8C6480
24E0CD80
333F9900
19807200
0CFFC400
071E1800
01C07000
007FC000
ENDCHAR
STARTCHAR Ubreve
ENCODING 364
SWIDTH 905 0
DWIDTH 33 0
BBX 30 38 1 -1
BITMAP
00283800
002C5000
00379000
00186000
00078000
00000000
00000000
00000000
D28004A4
D28004A4
D28004A4
D28004A4
D28004A4
D28004A4
D28004A4
D28004A4
D28004A4
D28004A4
D28004A4
D28004A4
D28004A4
D28004A4
D28004A4
D28004A4
D28004A4
D28004A4
5AC005AC
5B60092C
69301B68
2D9FE658
26C30C90
137039B0
199FE360
0CE00EC0
063FF980
0387C300
00F01C00
003FF000
ENDCHAR
STARTCHAR ubreve
ENCODING 365
SWIDTH 795 0
DWIDTH 29 0
BBX 26 34 1 -1
BITMAP
00A0A000
00B14000
005E4000
00618000
001E0000
00000000
00000000
00000000
D6806B40
D6806B40
D6806B40
D6806B40
D6806B40
D6806B40
D6806B40
D6806B40
D6806B40
D6806B40
D6806B40
D6806B40
D6806B40
D6806B40
D2804B40
52C04A40
5A60DAC0
4B3FB6C0
6D8C6480
24E0CD80
333F9900
19807200
0CFFC400
071E1800
01C07000
007FC000
ENDCHAR
STARTCHAR Uring
ENCODING 366
SWIDTH 905 0
DWIDTH 33 0
BBX 30 42 1 -1
BITMAP
0007C000
00186000
0017B000
00145000
00285000
00145000
0017B000
00086000
0007C000
00000000
00000000
00000000
D28004A4
D28004A4
D28004A4
D28004A4
D28004A4
D28004A4
D28004A4
D28004A4
D28004A4
D28004A4
D28004A4
D28004A4
D28004A4
D28004A4
D28004A4
D28004A4
D28004A4
D28004A4
5AC005AC
5B60092C
69301B68
2D9FE658
26C30C90
137039B0
199FE360
0CE00EC0
063FF980
0387C300
00F01C00
003FF000
ENDCHAR
STARTCHAR uring
ENCODING 367
SWIDTH 795 0
DWIDTH 29 0
BBX 26 39 1 -1
BITMAP
001F0000
00608000
005EC000
00514000
00E14000
00514000
005EC000
00218000
001F0000
00000000
00000000
00000000
00000000
D6806B40
D6806B40
D6806B40
D6806B40
D6806B40
D6806B40
D6806B40
D6806B40
D6806B40
D6806B40
D6806B40
D6806B40
D6806B40
D6806B40
D2804B40
52C04A40
5A60DAC0
4B3FB6C0
6D8C6480
24E0CD80
333F9900
19807200
0CFFC400
071E1800
01C07000
007FC000
ENDCHAR
STARTCHAR Uhungarumlaut
ENCODING 368
SWIDTH 905 0
DWIDTH 33 0
BBX 34 42 1 -1
BITMAP
0000C00700
0003801C00
000E3071C0
0038E1C700
00E3871C00
038E1C7000
023811C000
00C0070000
0000000000
0000000000
0000000000
0000000000
D28004A400
D28004A400
D28004A400
D28004A400
D28004A400
D28004A400
D28004A400
D28004A400
D28004A400
D28004A400
D28004A400
D28004A400
D28004A400
D28004A400
D28004A400
D28004A400
D28004A400
D28004A400
5AC005AC00
5B60092C00
69301B6800
2D9FE65800
26C30C9000
137039B000
199FE36000
0CE00EC000
063FF98000
0387C30000
00F01C0000
003FF00000
ENDCHAR
STARTCHAR uhungarumlaut
ENCODING 369
SWIDTH 795 0
DWIDTH 29 0
BBX 32 38 1 -1
BITMAP
0003001C
000E0070
0038C1C7
00E3871C
038E1C70
0E3871C0
08E04700
03801C00
00000000
00000000
00000000
00000000
D6806B40
D6806B40
D6806B40
D6806B40
D6806B40
D6806B40
D6806B40
D6806B40
D6806B40
D6806B40
D6806B40
D6806B40
D6806B40
D6806B40
D2804B40
52C04A40
5A60DAC0
4B3FB6C0
6D8C6480
24E0CD80
333F9900
19807200
0CFFC400
071E1800
01C07000
007FC000
ENDCHAR
STARTCHAR Uogonek
ENCODING 370
SWIDTH 905 0
DWIDTH 33 0
BBX 30 40 1 -11
BITMAP
D28004A4
D28004A4
D28004A4
D28004A4
D28004A4
D28004A4
D28004A4
D28004A4
D28004A4
D28004A4
D28004A4
D28004A4
D28004A4
D28004A4
D28004A4
D28004A4
D28004A4
D28004A4
5AC005AC
5B60092C
69301B68
2D9FE658
26C30C90
137039B0
199FE360
0CE00EC0
063FF980
0387C300
00F01C00
003FF000
00180000
00310000
00270000
00240000
002C0000
002D0000
002D0000
002D0000
002D0000
002D0000
ENDCHAR
STARTCHAR uogonek
ENCODING 371
SWIDTH 794 0
DWIDTH 29 0
BBX 26 36 1 -11
BITMAP
D6806B40
D6806B40
D6806B40
D6806B40
D6806B40
D6806B40
D6806B40
D6806B40
D6806B40
D6806B40
D6806B40
D6806B40
D6806B40
D6806B40
D2804B40
52C05A40
5A60DAC0
4B3FB6C0
6D8C6480
24E0CD80
333F9B00
19807200
0CFFCC00
071E1800
01C07000
007FC000
00600000
00CC0000
009C0000
00B00000
00A00000
00A40000
00A40000
00A40000
00A40000
00A40000
ENDCHAR
STARTCHAR Ycircumflex
ENCODING 374
SWIDTH 789 0
DWIDTH 28 0
BBX 27 41 1 0
BITMAP
001A0000
001B0000
00390000
002D8000
00648000
004E8000
005AC000
00D24000
00B36000
00000000
00000000
00000000
B5802D60
D6804B40
5AC05AC0
6B409680
2D60B580
35A1AD00
16B16B00
12D35A00
0B5AD600
096EB400
05A5AC00
04BD6800
02AB4800
025A5000
01529000
0154A000
01A52000
00A94000
00CA4000
005AC000
005AC000
005AC000
005AC000
005AC000
005AC000
005AC000
005AC000
005AC000
005AC000
ENDCHAR
STARTCHAR ycircumflex
ENCODING 375
SWIDTH 733 0
DWIDTH 26 0
BBX 25 37 1 0
BITMAP
00340000
00360000
00720000
005B0000
00490000
009D0000
00B58000
01A48000
0166C000
00000000
00000000
01000000
B480B580
D2C12900
4A414B00
69625A00
25A2D600
34B6B400
12D5AC00
0A4D6800
096B5800
05BAD000
0496B000
02F5A000
02AD2000
016B4000
015A4000
00D28000
00948000
00948000
00948000
00948000
00948000
00948000
00948000
00948000
00948000
ENDCHAR
STARTCHAR Ydieresis
ENCODING 376
SWIDTH 789 0
DWIDTH 28 0
BBX 27 37 1 0
BITMAP
0521AC00
0521AC00
0521AC00
0521AC00
00000000
00000000
00000000
00000000
B5802D60
D6804B40
5AC05AC0
6B409680
2D60B580
35A1AD00
16B16B00
12D35A00
0B5AD600
096EB400
05A5AC00
04BD6800
02AB4800
025A5000
01529000
0154A000
01A52000
00A94000
00CA4000
005AC000
005AC000
005AC000
005AC000
005AC000
005AC000
005AC000
005AC000
005AC000
005AC000
ENDCHAR
STARTCHAR Zacute
ENCODING 377
SWIDTH 854 0
DWIDTH 31 0
BBX 28 41 1 0
BITMAP
00000300
00000E00
000039C0
0000E700
00039C00
001E7000
0009C000
00070000
00000000
00000000
00000000
00000000
FFFFFFF0
00000030
FFFFFEE0
FFFFF990
00000730
FFFFCCE0
00003990
FFFC6730
FFF9CCE0
00033990
000E6730
0019CCC0
00733980
00CE6700
0199CC00
06733800
0CCE6000
3399C000
66730000
9CCE0000
3398FFF0
66730000
9CC00000
33BFFFF0
E6000000
9CFFFFF0
33000000
E0000000
FFFFFFF0
ENDCHAR
STARTCHAR zacute
ENCODING 378
SWIDTH 714 0
DWIDTH 26 0
BBX 24 37 1 0
BITMAP
00000C
000070
0001C7
00071C
001C70
0071C0
002700
001C00
000000
000000
000000
000100
FFFA6D
0006DB
FFFC92
FFE9B6
001B64
FFD248
0036D8
006C90
0049A0
00DB60
019240
0136C0
036C80
024900
06DB00
0D9200
093600
1B6C00
324800
26DBFE
6D9000
4937FE
DB6800
B24000
A6DFFE
ENDCHAR
STARTCHAR Zdotaccent
ENCODING 379
SWIDTH 854 0
DWIDTH 31 0
BBX 28 38 1 0
BITMAP
001F8000
00000000
001F8000
001F8000
00000000
001F8000
00000000
00000000
00000000
FFFFFFF0
00000030
FFFFFEE0
FFFFF990
00000730
FFFFCCE0
00003990
FFFC6730
FFF9CCE0
00033990
000E6730
0019CCC0
00733980
00CE6700
0199CC00
06733800
0CCE6000
3399C000
66730000
9CCE0000
3398FFF0
66730000
9CC00000
33BFFFF0
E6000000
9CFFFFF0
33000000
E0000000
FFFFFFF0
ENDCHAR
STARTCHAR zdotaccent
ENCODING 380
SWIDTH 714 0
DWIDTH 26 0
BBX 24 35 1 0
BITMAP
007E00
000000
007E00
007E00
000000
007E00
000000
000000
000000
000100
FFFA6D
0006DB
FFFC92
FFE9B6
001B64
FFD248
0036D8
006C90
0049A0
00DB60
019240
0136C0
036C80
024900
06DB00
0D9200
093600
1B6C00
324800
26DBFE
6D9000
4937FE
DB6800
B24000
A6DFFE
ENDCHAR
STARTCHAR Zcaron
ENCODING 381
SWIDTH 854 0
DWIDTH 31 0
BBX 28 41 1 0
BITMAP
0048B000
0069A000
002D2000
00276000
00124000
0012C000
001E8000
000C8000
000D8000
00000000
00000000
00000000
FFFFFFF0
00000030
FFFFFEE0
FFFFF990
00000730
FFFFCCE0
00003990
FFFC6730
FFF9CCE0
00033990
000E6730
0019CCC0
00733980
00CE6700
0199CC00
06733800
0CCE6000
3399C000
66730000
9CCE0000
3398FFF0
66730000
9CC00000
33BFFFF0
E6000000
9CFFFFF0
33000000
E0000000
FFFFFFF0
ENDCHAR
STARTCHAR zcaron
ENCODING 382
SWIDTH 714 0
DWIDTH 26 0
BBX 24 37 1 0
BITMAP
016680
012480
01B580
00AD00
00CB00
005A00
005200
007600
003400
000000
000000
000100
FFFA6D
0006DB
FFFC92
FFE9B6
001B64
FFD248
0036D8
006C90
0049A0
00DB60
019240
0136C0
036C80
024900
06DB00
0D9200
093600
1B6C00
324800
26DBFE
6D9000
4937FE
DB6800
B24000
A6DFFE
ENDCHAR
STARTCHAR florin
ENCODING 402
SWIDTH 388 0
DWIDTH 14 0
BBX 12 33 1 -3
BITMAP
03F0
0600
0CF0
09C0
1A00
16F0
1680
1680
1680
1680
D6B0
1680
D6B0
D6B0
1680
D6B0
1680
1680
1680
1680
1680
1680
1680
1680
1680
1680
F480
0580
1900
F300
0600
FC00
E000
ENDCHAR
STARTCHAR uni01C4
ENCODING 452
SWIDTH 1740 0
DWIDTH 63 0
BBX 59 41 2 0
BITMAP
0000000000916000
0000000000D34000
00000000005A4000
00000000004EC000
0000000000248000
0000000000258000
00000000003D0000
0000000000190000
00000000001B0000
0000000000000000
0000000000000000
0000000000000000
FFFFF001FFFFFFE0
80003C0000000060
BFFF0601FFFFFDC0
BFFFF301FFFFF320
A0001D8000000E60
A7FFC6C1FFFF99C0
A400736000007320
A5FF1921FFF8CE60
A5FFCDB1FFF399C0
A500249000067320
A50016D0001CCE60
A50012D000339980
A5001A5800E67300
A5000A58019CCC00
A5000B5807339800
A5000A580CE66000
A5001A58199CC000
A50012D067338000
A50036D0CCE60000
A5002491399C0000
A5FFCDB06731FFE0
A4001921CCE60000
A400726139800000
A7FFC6C0677FFFE0
A0001981CC000000
BFFFF30139FFFFE0
8000060066000000
80003C01C0000000
FFFFE001FFFFFFE0
ENDCHAR
STARTCHAR uni01C5
ENCODING 453
SWIDTH 1601 0
DWIDTH 58 0
BBX 55 37 2 0
BITMAP
0000000002CD00
00000000024900
00000000037B00
00000000015200
00000000019600
0000000000B400
0000000000A400
0000000000EC00
FFFFF000004800
80003C00000000
BFFF0600000000
BFFFF300000240
A0001D81FFF49A
A7FFC6C0000DB6
A4007361FFF924
A5FF1921FFD26C
A5FFCDB00036C8
A5002491FFA490
A50016D0006DB0
A50012D000D920
A5001A58009340
A5000A5801B6C0
A5000B58032480
A5000A58026D80
A5001A5806D900
A50012D0049200
A50036D00DB600
A50024901B2400
A5FFCDB0126C00
A400192036D800
A4007260649000
A7FFC6C04DB7FC
A0001980DB2000
BFFFF300924FFC
80000601B6D000
80003C01648000
FFFFE0014DBFFC
ENDCHAR
STARTCHAR Scommaaccent
ENCODING 536
SWIDTH 682 0
DWIDTH 25 0
BBX 23 45 1 -15
BITMAP
03FF80
0E00F0
18FE18
33E7C6
660070
4CFF98
5B00E0
D23E00
96EF80
948000
948000
96FF00
D203C0
59C060
6CFF30
2601D8
33FE48
1C072C
0781A4
01FCB4
000694
000694
03FCB4
0879B4
0E032C
23FE48
1801D8
CFFF30
70F860
1E01C0
07FF00
000000
000000
000000
00B400
00B400
00B400
00B400
00B400
003400
002400
00E400
000800
003800
00E000
ENDCHAR
STARTCHAR scommaaccent
ENCODING 537
SWIDTH 683 0
DWIDTH 25 0
BBX 23 40 1 -14
BITMAP
01FF00
0783E0
180038
33FF8E
6600E4
48FE18
D387C0
960060
940000
960000
D3FF00
4807E0
670030
31FF98
1C00CC
07FE24
000FB4
000094
000094
0C01B4
27FF24
38786C
8F03D8
63FE30
3800E0
0FFF80
003800
000000
000000
00B400
00B400
00B400
00B400
00B400
003400
002400
00E400
000C00
003800
00E000
ENDCHAR
STARTCHAR uni021A
ENCODING 538
SWIDTH 591 0
DWIDTH 21 0
BBX 19 42 1 -13
BITMAP
FFFFE0
000000
FFFFE0
FFFFE0
000000
FFFFE0
04A400
04A400
04A400
04A400
04A400
04A400
04A400
04A400
04A400
04A400
04A400
04A400
04A400
04A400
04A400
04A400
04A400
04A400
04A400
04A400
04A400
04A400
04A400
000000
000000
035800
035800
035800
035800
035800
005800
00D800
039000
003000
00E000
03C000
ENDCHAR
STARTCHAR uni021B
ENCODING 539
SWIDTH 588 0
DWIDTH 21 0
BBX 19 38 1 -13
BITMAP
FFFFE0
000000
FFFFE0
000000
000000
FFFFE0
000000
04A400
04A400
04A400
04A400
04A400
04A400
04A400
04A400
04A400
04A400
04A400
04A400
04A400
04A400
04A400
04A400
04A400
04A400
000000
000000
035800
035800
035800
035800
035800
005800
00D800
039000
003000
00E000
03C000
ENDCHAR
STARTCHAR uni0237
ENCODING 567
SWIDTH 393 0
DWIDTH 14 0
BBX 12 29 1 -4
BITMAP
16B0
16B0
16B0
16B0
16B0
16B0
16B0
16B0
16B0
16B0
16B0
16B0
16B0
16B0
16B0
16B0
16B0
16B0
34B0
65A0
CD20
1960
F240
86C0
1980
F300
0E00
F800
E000
ENDCHAR
STARTCHAR circumflex
ENCODING 710
SWIDTH 376 0
DWIDTH 14 0
BBX 11 9 1 27
BITMAP
0B00
1D00
1580
3480
26C0
2A40
6B40
4960
D9A0
ENDCHAR
STARTCHAR caron
ENCODING 711
SWIDTH 362 0
DWIDTH 13 0
BBX 11 9 1 27
BITMAP
D120
5B60
4A40
6AC0
2680
2480
1D80
1900
1B00
ENDCHAR
STARTCHAR breve
ENCODING 728
SWIDTH 360 0
DWIDTH 13 0
BBX 11 5 1 28
BITMAP
A0A0
B1A0
4E40
3180
1F00
ENDCHAR
STARTCHAR dotaccent
ENCODING 729
SWIDTH 255 0
DWIDTH 9 0
BBX 7 6 1 23
BITMAP
FE
00
FE
FE
00
FE
ENDCHAR
STARTCHAR ring
ENCODING 730
SWIDTH 330 0
DWIDTH 12 0
BBX 10 9 1 28
BITMAP
3F00
6180
5E80
A340
A140
A340
5E80
6180
3E00
ENDCHAR
STARTCHAR ogonek
ENCODING 731
SWIDTH 250 0
DWIDTH 9 0
BBX 7 11 1 -10
BITMAP
1E
70
46
DE
D0
D0
D6
D6
D6
D6
D6
ENDCHAR
STARTCHAR tilde
ENCODING 732
SWIDTH 665 0
DWIDTH 24 0
BBX 22 7 1 20
BITMAP
07FE2C
3FFE2C
60006C
4FFFC8
D80018
D1FFF0
D1FFC0
ENDCHAR
STARTCHAR hungarumlaut
ENCODING 733
SWIDTH 837 0
DWIDTH 30 0
BBX 28 8 1 26
BITMAP
001800C0
00700380
01CE0E30
073839C0
18E0E700
E3879C00
4E027000
3801C000
ENDCHAR
STARTCHAR uni0307
ENCODING 775
SWIDTH 260 0
DWIDTH 9 0
BBX 6 6 2 14
BITMAP
FC
00
FC
FC
00
FC
ENDCHAR
STARTCHAR uni030F
ENCODING 783
SWIDTH 554 0
DWIDTH 20 0
BBX 18 12 1 27
BITMAP
905800
D86800
482C00
682400
2C3600
241200
361A00
120B00
1A0900
0B0D80
090480
0D86C0
ENDCHAR
STARTCHAR uni0311
ENCODING 785
SWIDTH 375 0
DWIDTH 14 0
BBX 11 5 1 28
BITMAP
0400
3B80
6640
5BA0
E0A0
ENDCHAR
STARTCHAR uni0326
ENCODING 806
SWIDTH 274 0
DWIDTH 10 0
BBX 6 11 2 -14
BITMAP
B4
B4
B4
B4
B4
24
24
EC
08
38
E0
ENDCHAR
STARTCHAR Omega
ENCODING 937
SWIDTH 92 0
DWIDTH 3 0
BBX 1 1 0 0
BITMAP
00
ENDCHAR
STARTCHAR uni00B5.dup2
ENCODING 956
SWIDTH 802 0
DWIDTH 29 0
BBX 25 29 2 -4
BITMAP
A5805280
A5805280
A5805280
A5805280
A5805280
A5805280
A5805280
A5805280
A5805280
A5805280
A5805280
A5805280
A5805280
A5805280
A580D280
A580D680
A581B680
A5FF2580
A59C6D00
A581D900
A5FF3200
A5806600
A5FFCC00
A5BC3800
A580E000
A5FF8000
A5800000
A5800000
A5800000
ENDCHAR
STARTCHAR pi
ENCODING 960
SWIDTH 92 0
DWIDTH 3 0
BBX 1 1 0 0
BITMAP
00
ENDCHAR
STARTCHAR endash
ENCODING 8211
SWIDTH 473 0
DWIDTH 17 0
BBX 14 7 2 11
BITMAP
FFFC
FFFC
0000
FFFC
0000
FFFC
FFFC
ENDCHAR
STARTCHAR emdash
ENCODING 8212
SWIDTH 615 0
DWIDTH 22 0
BBX 19 7 2 11
BITMAP
FFFFE0
FFFFE0
000000
FFFFE0
000000
FFFFE0
FFFFE0
ENDCHAR
STARTCHAR quoteleft
ENCODING 8216
SWIDTH 254 0
DWIDTH 9 0
BBX 7 11 1 18
BITMAP
1E
30
42
4E
D0
D0
D6
D6
D6
D6
D6
ENDCHAR
STARTCHAR quoteright
ENCODING 8217
SWIDTH 251 0
DWIDTH 9 0
BBX 7 11 1 18
BITMAP
D6
D6
D6
D6
D6
16
16
F6
C4
1C
F0
ENDCHAR
STARTCHAR quotesinglbase
ENCODING 8218
SWIDTH 252 0
DWIDTH 9 0
BBX 7 11 1 -5
BITMAP
D6
D6
D6
D6
D6
16
16
E4
84
18
F0
ENDCHAR
STARTCHAR quotedblleft
ENCODING 8220
SWIDTH 535 0
DWIDTH 19 0
BBX 17 11 1 18
BITMAP
1E0780
300C00
421880
4E1380
D01600
D03400
D63480
D63480
D63480
D63480
D63480
ENDCHAR
STARTCHAR quotedblright
ENCODING 8221
SWIDTH 532 0
DWIDTH 19 0
BBX 17 11 1 18
BITMAP
D61480
D61480
D61480
D61480
D61480
160480
160480
F61D80
C41100
1C0300
F01E00
ENDCHAR
STARTCHAR quotedblbase
ENCODING 8222
SWIDTH 533 0
DWIDTH 19 0
BBX 17 11 1 -5
BITMAP
D63480
D63480
D63480
D63480
D63480
160480
160580
E43D80
842100
180600
F03C00
ENDCHAR
STARTCHAR dagger
ENCODING 8224
SWIDTH 636 0
DWIDTH 23 0
BBX 21 29 1 0
BITMAP
025A00
025A00
025A00
025A00
025A00
025A00
FE5BF8
025A00
FE5BF8
FE5BF8
025A00
FE5BF8
025A00
025A00
025A00
025A00
025A00
025A00
025A00
025A00
025A00
025A00
025A00
025A00
025A00
025A00
025A00
025A00
025A00
ENDCHAR
STARTCHAR daggerdbl
ENCODING 8225
SWIDTH 648 0
DWIDTH 23 0
BBX 21 29 1 0
BITMAP
034A00
034A00
034A00
034A00
034A00
FF4BF8
FF4BF8
034A00
FF4BF8
034A00
FF4BF8
FF4BF8
034A00
034A00
034A00
034A00
034A00
FF4BF8
FF4BF8
034A00
FF4BF8
034A00
FF4BF8
FF4BF8
034A00
034A00
034A00
034A00
034A00
ENDCHAR
STARTCHAR bullet
ENCODING 8226
SWIDTH 501 0
DWIDTH 18 0
BBX 16 15 1 5
BITMAP
0FF0
1818
33C4
6E76
481A
D00B
D009
D009
D00B
D80B
4812
67E6
318C
1C38
07E0
ENDCHAR
STARTCHAR ellipsis
ENCODING 8230
SWIDTH 676 0
DWIDTH 24 0
BBX 22 6 1 0
BITMAP
FEFCFC
000000
FEFCFC
000000
000000
FEFCFC
ENDCHAR
STARTCHAR perthousand
ENCODING 8240
SWIDTH 447 0
DWIDTH 16 0
BBX 14 32 1 -3
BITMAP
00B4
01A4
012C
0128
0168
0348
0258
0250
02D0
0690
04B0
04A0
05A0
0D20
0960
0940
0B40
1A40
12C0
1280
1680
3480
2580
2500
2D00
6900
4B00
4A00
5A00
D200
9600
B400
ENDCHAR
STARTCHAR guilsinglleft
ENCODING 8249
SWIDTH 465 0
DWIDTH 17 0
BBX 14 18 1 4
BITMAP
0004
003C
00E0
078C
1C38
F1E4
8F1C
3870
E3C0
8EE0
7838
C78C
78E0
0E3C
03C4
0070
001C
0004
ENDCHAR
STARTCHAR guilsinglright
ENCODING 8250
SWIDTH 465 0
DWIDTH 17 0
BBX 14 18 1 4
BITMAP
C000
7800
0E00
E3C0
3870
8F1C
E1C4
3C78
070C
0CE4
383C
E3C4
1E3C
70E0
C780
1C00
F000
8000
ENDCHAR
STARTCHAR fraction
ENCODING 8260
SWIDTH 447 0
DWIDTH 16 0
BBX 14 32 1 -3
BITMAP
00B4
01A4
012C
0128
0168
0348
0258
0250
02D0
0690
04B0
04A0
05A0
0D20
0960
0940
0B40
1A40
12C0
1280
1680
3480
2580
2500
2D00
6900
4B00
4A00
5A00
D200
9600
B400
ENDCHAR
STARTCHAR uni2074
ENCODING 8308
SWIDTH 528 0
DWIDTH 19 0
BBX 17 23 1 6
BITMAP
034800
06D800
049000
0DB000
092000
1B6000
124000
16C000
348000
2D9A00
691A00
4B1A00
DA1A00
FFFF80
000000
000000
FFFF80
000000
FFFF80
000000
001A00
001A00
001A00
ENDCHAR
STARTCHAR Euro
ENCODING 8364
SWIDTH 781 0
DWIDTH 28 0
BBX 26 31 1 -1
BITMAP
0007FF80
001C01C0
0071FC00
00CFDFC0
01980080
0373FF00
06CE0180
0498FC00
0DB3FF00
0B660000
1A480000
12D80000
16900000
D4BFF000
34A00000
34A00000
34A00000
D4BFF000
16900000
12D80000
1A480000
0B660000
0DB3FF00
0498F000
064E0380
0333FE00
019C0080
00C7FF80
0070FC00
001E01C0
0007FF00
ENDCHAR
STARTCHAR trademark
ENCODING 8482
SWIDTH 1503 0
DWIDTH 54 0
BBX 52 21 1 8
BITMAP
FFFFE258000DB0
0000036C001B70
FFFFE3A4001270
FFFFE2B60036F0
000002D20024B0
FFFFE24B006DB0
035802E90049B0
035802A580DBB0
035802B68092B0
035802D2C1B4B0
035802DB412CB0
035802E9236AB0
035802DDA25AB0
035802D49694B0
035802D6DCB4B0
035802D24924B0
035802D36D64B0
035802D12544B0
035802D1B6C4B0
035802D09284B0
035802D05B84B0
ENDCHAR
STARTCHAR partialdiff
ENCODING 8706
SWIDTH 108 0
DWIDTH 4 0
BBX 1 1 0 0
BITMAP
00
ENDCHAR
STARTCHAR uni2206
ENCODING 8710
SWIDTH 108 0
DWIDTH 4 0
BBX 1 1 0 0
BITMAP
00
ENDCHAR
STARTCHAR product
ENCODING 8719
SWIDTH 521 0
DWIDTH 19 0
BBX 17 25 1 0
BITMAP
06B000
0ED800
0A4800
196800
152C00
15A400
36B600
249200
6DDA00
494B00
5B6900
D22D80
962580
DA2D00
4B6900
695B00
2D5200
259600
36B400
12E400
1A4C00
0B4800
097800
0DB000
04B000
ENDCHAR
STARTCHAR summation
ENCODING 8721
SWIDTH 108 0
DWIDTH 4 0
BBX 1 1 0 0
BITMAP
00
ENDCHAR
STARTCHAR minus
ENCODING 8722
SWIDTH 555 0
DWIDTH 20 0
BBX 16 6 2 13
BITMAP
FFFF
0000
0000
FFFF
0000
FFFF
ENDCHAR
STARTCHAR radical
ENCODING 8730
SWIDTH 108 0
DWIDTH 4 0
BBX 1 1 0 0
BITMAP
00
ENDCHAR
STARTCHAR infinity
ENCODING 8734
SWIDTH 108 0
DWIDTH 4 0
BBX 1 1 0 0
BITMAP
00
ENDCHAR
STARTCHAR integral
ENCODING 8747
SWIDTH 362 0
DWIDTH 13 0
BBX 11 33 1 -3
BITMAP
03E0
0600
08E0
1B80
1600
34E0
3580
3580
3580
3580
3580
3580
3580
3580
3580
3580
3580
3580
3580
3580
3580
3580
3580
3580
3580
3580
E580
0D00
1900
F200
0E00
F800
C000
ENDCHAR
STARTCHAR approxequal
ENCODING 8776
SWIDTH 665 0
DWIDTH 24 0
BBX 22 16 1 11
BITMAP
07FE2C
3FFE2C
60006C
4FFFC8
D80018
D1FFF0
D1FFC0
000000
000000
07FE2C
3FFE2C
60006C
4FFFC8
D80018
D1FFF0
D1FFC0
ENDCHAR
STARTCHAR notequal
ENCODING 8800
SWIDTH 473 0
DWIDTH 17 0
BBX 15 32 1 -3
BITMAP
00B4
01A4
012C
0128
0168
0348
0258
7FFE
7FFE
0690
7FFE
04A0
05A0
7FFE
0960
0940
0B40
1A40
7FFE
1280
7FFE
3480
2580
7FFE
2D00
6900
4B00
4A00
5A00
D200
9600
B400
ENDCHAR
STARTCHAR lessequal
ENCODING 8804
SWIDTH 108 0
DWIDTH 4 0
BBX 1 1 0 0
BITMAP
00
ENDCHAR
STARTCHAR greaterequal
ENCODING 8805
SWIDTH 108 0
DWIDTH 4 0
BBX 1 1 0 0
BITMAP
00
ENDCHAR
STARTCHAR lozenge
ENCODING 9674
SWIDTH 521 0
DWIDTH 19 0
BBX 17 25 1 0
BITMAP
06B000
0ED800
0A4800
196800
152C00
15A400
36B600
249200
6DDA00
494B00
5B6900
D22D80
962580
DA2D00
4B6900
695B00
2D5200
259600
36B400
12E400
1A4C00
0B4800
097800
0DB000
04B000
ENDCHAR
STARTCHAR uniF8FF
ENCODING 63743
SWIDTH 108 0
DWIDTH 4 0
BBX 1 1 0 0
BITMAP
00
ENDCHAR
STARTCHAR uniFB01
ENCODING 64257
SWIDTH 962 0
DWIDTH 35 0
BBX 31 25 2 0
BITMAP
A5FFE252
A5800252
A5FFE252
A5800252
A5800252
A5FFE252
A5800252
A5800252
A5800252
A5800252
A5FFC252
A5800252
A5FFC252
A5FFC252
A5800252
A5FFC252
A5800252
A5800252
A5800252
A5800252
A5800252
A5800252
A5800252
A5800252
A5800252
ENDCHAR
STARTCHAR uniFB02
ENCODING 64258
SWIDTH 1208 0
DWIDTH 43 0
BBX 40 25 2 0
BITMAP
A5FFE25200
A580025200
A5FFE25200
A580025200
A580025200
A5FFE25200
A580025200
A580025200
A580025200
A580025200
A5FFC25200
A580025200
A5FFC25200
A5FFC25200
A580025200
A5FFC25200
A580025200
A580025200
A580025200
A5800253FF
A580025200
A5800253FF
A580025200
A580025200
A5800253FF
ENDCHAR
STARTCHAR .notdef
ENCODING -1
SWIDTH 108 0
DWIDTH 4 0
BBX 1 1 0 0
BITMAP
00
ENDCHAR
ENDFONT
